<svg width="184" height="210" viewBox="0 0 184 210" fill="none" xmlns="http://www.w3.org/2000/svg">
<path d="M13.4645 201.311C12.907 200.834 11.6644 199.319 12.6134 197.562C12.9666 196.915 13.7113 196.596 14.388 196.311C15.0836 196.075 15.7394 195.735 16.3327 195.302C17.3838 194.409 17.6775 192.919 18.3754 191.723C19.1797 190.349 20.6776 189.319 22.2606 189.391C24.0735 189.472 25.5884 190.957 26.2736 192.642C26.9587 194.328 26.9843 196.209 26.997 198.034C26.997 199.043 26.9587 200.162 26.2183 200.86C25.4778 201.558 24.5288 201.485 23.5841 201.485L13.673 201.179" fill="#F5F5F5"/>
<path d="M32.414 174.055H6.34473L11.0258 202.056C11.1232 202.639 11.384 203.182 11.778 203.623C12.172 204.064 12.6829 204.384 13.2514 204.545C13.2806 204.556 13.3105 204.564 13.3408 204.571C13.4176 204.595 13.4957 204.615 13.5748 204.631C13.7486 204.667 13.9251 204.688 14.1025 204.694V204.72L14.2302 204.699H25.8477C26.6373 204.696 27.4004 204.414 28.0007 203.901C28.6009 203.388 28.9993 202.678 29.1245 201.898L31.3884 182.608L31.4905 181.842L32.3884 174.204L32.414 174.055ZM27.5074 191.915H24.8221L25.0902 183.791H28.1882L27.5074 191.915ZM28.4606 183.791H31.0139L30.0607 191.915H27.7542L28.4606 183.791ZM20.8007 200.924L20.639 193.864H24.4689L24.2349 200.924H20.8007ZM16.6388 193.864H20.3794L20.5454 200.924H17.192L16.6388 193.864ZM16.9282 200.924H13.7919C13.494 199.017 13.1067 196.541 12.6854 193.864H16.3835L16.9282 200.924ZM16.5026 191.915L15.8728 183.791H20.1538L20.3411 191.915H16.5026ZM20.6134 191.915L20.4262 183.791H24.8307L24.5626 191.915H20.6134ZM20.3794 181.842L20.2049 174.319H25.1456L24.8945 181.842H20.3794ZM20.1198 181.842H15.7068L15.1238 174.319H19.9368L20.1198 181.842ZM15.4387 181.842H10.7917C10.6258 180.804 10.4726 179.817 10.3321 178.931C9.84275 175.889 9.65977 174.748 9.56189 174.319H14.8643L15.4387 181.842ZM15.5919 183.791L16.2218 191.915H12.3918C12.2641 191.089 12.1322 190.255 12.0003 189.421C11.6982 187.506 11.396 185.591 11.1151 183.791H15.5919ZM12.1109 191.915H9.60444L8.24268 183.791H10.8385C11.2343 186.302 11.6769 189.098 12.1194 191.915H12.1109ZM12.4173 193.864C12.8003 196.307 13.1791 198.715 13.5238 200.924H11.1151L9.93212 193.864H12.4173ZM24.5285 200.924L24.7626 193.864H27.3159L26.7116 200.924H24.5285ZM25.1626 181.842L25.4137 174.319H29.0053L28.3585 181.842H25.1626ZM9.31507 174.319C9.4172 174.859 9.89382 177.821 10.5321 181.842H7.93203L6.65538 174.319H9.31507ZM29.001 200.924H26.9839L27.5882 193.864H29.8266L29.001 200.924ZM31.2394 181.842H28.6138L29.2606 174.319H32.1203L31.2394 181.842Z" fill="#E0E0E0"/>
<path d="M116.724 154.45H49.7769V185.328H116.724V154.45Z" fill="#F5F5F5"/>
<path d="M115.133 183.868H51.3003V156.071H115.133V183.868ZM51.7258 183.442H114.707V156.488H51.7258V183.442Z" fill="#E0E0E0"/>
<path d="M133.082 154.45H116.729V185.328H133.082V154.45Z" fill="#E0E0E0"/>
<path d="M51.5172 164.676H114.924C114.947 164.676 114.969 164.667 114.984 164.651C115 164.635 115.009 164.613 115.009 164.591C115.009 164.568 115 164.546 114.984 164.531C114.969 164.515 114.947 164.506 114.924 164.506H51.5172C51.4947 164.506 51.473 164.515 51.4571 164.531C51.4411 164.546 51.4321 164.568 51.4321 164.591C51.4321 164.613 51.4411 164.635 51.4571 164.651C51.473 164.667 51.4947 164.676 51.5172 164.676Z" fill="#E0E0E0"/>
<path d="M83.4293 164.59C83.6066 161.798 83.6137 158.996 83.4506 156.203C83.4506 156.18 83.4416 156.159 83.4256 156.143C83.4097 156.127 83.388 156.118 83.3655 156.118C83.3429 156.118 83.3212 156.127 83.3053 156.143C83.2893 156.159 83.2803 156.18 83.2803 156.203C83.1172 158.996 83.1243 161.798 83.3016 164.59C83.3016 164.607 83.3084 164.624 83.3203 164.636C83.3323 164.647 83.3485 164.654 83.3655 164.654C83.3824 164.654 83.3986 164.647 83.4106 164.636C83.4226 164.624 83.4293 164.607 83.4293 164.59Z" fill="#E0E0E0"/>
<path d="M100.498 160.399C100.498 160.567 100.448 160.732 100.355 160.872C100.261 161.012 100.128 161.121 99.9727 161.185C99.8172 161.25 99.6461 161.267 99.481 161.234C99.3159 161.201 99.1642 161.12 99.0452 161.001C98.9261 160.882 98.8451 160.73 98.8123 160.565C98.7794 160.4 98.7963 160.229 98.8607 160.073C98.9251 159.918 99.0342 159.785 99.1742 159.691C99.3141 159.598 99.4787 159.548 99.647 159.548C99.8727 159.548 100.089 159.638 100.249 159.797C100.408 159.957 100.498 160.173 100.498 160.399Z" fill="#E0E0E0"/>
<path d="M67.2198 160.399C67.2198 160.567 67.1699 160.732 67.0763 160.872C66.9828 161.012 66.8499 161.121 66.6944 161.185C66.5389 161.25 66.3677 161.267 66.2026 161.234C66.0375 161.201 65.8859 161.12 65.7669 161.001C65.6478 160.882 65.5668 160.73 65.5339 160.565C65.5011 160.4 65.5179 160.229 65.5824 160.073C65.6468 159.918 65.7559 159.785 65.8958 159.691C66.0358 159.598 66.2004 159.548 66.3687 159.548C66.5944 159.548 66.8109 159.638 66.9705 159.797C67.1301 159.957 67.2198 160.173 67.2198 160.399Z" fill="#E0E0E0"/>
<path d="M84.106 169.97C84.106 170.138 84.0561 170.302 83.9626 170.442C83.8691 170.582 83.7361 170.691 83.5806 170.756C83.4251 170.82 83.254 170.837 83.0889 170.804C82.9238 170.771 82.7721 170.69 82.6531 170.571C82.5341 170.452 82.453 170.301 82.4202 170.136C82.3873 169.97 82.4042 169.799 82.4686 169.644C82.533 169.488 82.6421 169.355 82.7821 169.262C82.922 169.168 83.0866 169.118 83.2549 169.118C83.4806 169.118 83.6971 169.208 83.8567 169.368C84.0163 169.527 84.106 169.744 84.106 169.97Z" fill="#E0E0E0"/>
<path d="M57.7819 185.323L54.335 204.707H56.2755L62.6289 185.323H57.7819Z" fill="#E0E0E0"/>
<path d="M111.993 185.323L114.873 204.741H112.933L107.146 185.323H111.993Z" fill="#E0E0E0"/>
<path d="M124.933 185.323L128.197 204.741H126.261L120.086 185.323H124.933Z" fill="#E0E0E0"/>
<path d="M84.0298 178.71C84.0298 178.879 83.9799 179.043 83.8864 179.183C83.7929 179.323 83.66 179.432 83.5044 179.497C83.3489 179.561 83.1778 179.578 83.0127 179.545C82.8476 179.512 82.6959 179.431 82.5769 179.312C82.4579 179.193 82.3768 179.042 82.344 178.877C82.3112 178.711 82.328 178.54 82.3924 178.385C82.4568 178.229 82.5659 178.096 82.7059 178.003C82.8459 177.909 83.0104 177.859 83.1787 177.859C83.4045 177.859 83.6209 177.949 83.7806 178.109C83.9402 178.268 84.0298 178.485 84.0298 178.71Z" fill="#E0E0E0"/>
<path d="M51.5172 174.251H114.924C114.947 174.251 114.969 174.242 114.984 174.226C115 174.21 115.009 174.188 115.009 174.165C115.009 174.143 115 174.121 114.984 174.105C114.969 174.089 114.947 174.08 114.924 174.08H51.5172C51.4947 174.08 51.473 174.089 51.4571 174.105C51.4411 174.121 51.4321 174.143 51.4321 174.165C51.4321 174.188 51.4411 174.21 51.4571 174.226C51.473 174.242 51.4947 174.251 51.5172 174.251Z" fill="#E0E0E0"/>
<path d="M96.5157 143.96L96.4941 139.84L76.251 139.946L76.2725 144.066L96.5157 143.96Z" fill="#E0E0E0"/>
<path d="M98.95 154.356L98.9165 147.951L76.3541 148.069L76.3876 154.474L98.95 154.356Z" fill="#F5F5F5"/>
<path d="M94.6087 154.318C94.4967 153.255 94.4597 152.186 94.4981 151.118C94.4597 150.049 94.4966 148.978 94.6087 147.914C94.7154 148.978 94.751 150.049 94.7151 151.118C94.7509 152.186 94.7154 153.255 94.6087 154.318Z" fill="#E0E0E0"/>
<path d="M95.5535 154.318C95.4469 153.255 95.4113 152.186 95.4471 151.118C95.4112 150.049 95.4468 148.978 95.5535 147.914C95.663 148.978 95.7 150.049 95.6641 151.118C95.6999 152.186 95.6629 153.255 95.5535 154.318Z" fill="#E0E0E0"/>
<path d="M79.787 154.318C79.6775 153.255 79.6406 152.186 79.6763 151.118C79.6405 150.049 79.6774 148.978 79.787 147.914C79.8965 148.978 79.9335 150.049 79.8976 151.118C79.9334 152.186 79.8964 153.255 79.787 154.318Z" fill="#E0E0E0"/>
<path d="M80.7357 154.318C80.6237 153.255 80.5867 152.186 80.625 151.118C80.5866 150.049 80.6236 148.978 80.7357 147.914C80.8424 148.978 80.8779 150.049 80.8421 151.118C80.8779 152.186 80.8423 153.255 80.7357 154.318Z" fill="#E0E0E0"/>
<path d="M82.8037 151.22C82.8037 151.16 85.0762 151.109 87.8848 151.109C90.6934 151.109 92.9914 151.16 92.9914 151.22C92.9914 151.28 90.7147 151.331 87.8848 151.331C85.0549 151.331 82.8037 151.271 82.8037 151.22Z" fill="#E0E0E0"/>
<path d="M107.421 147.918L107.4 143.799L79.5607 143.945L79.5823 148.064L107.421 147.918Z" fill="#EBEBEB"/>
<path d="M103.438 147.411C103.174 147.414 102.915 147.339 102.694 147.195C102.472 147.05 102.299 146.844 102.196 146.601C102.092 146.357 102.063 146.089 102.113 145.83C102.162 145.57 102.288 145.331 102.473 145.143C102.659 144.955 102.896 144.827 103.155 144.774C103.414 144.721 103.683 144.747 103.927 144.847C104.171 144.947 104.38 145.118 104.528 145.337C104.675 145.557 104.753 145.815 104.753 146.079C104.754 146.253 104.721 146.425 104.656 146.586C104.59 146.747 104.494 146.894 104.372 147.017C104.25 147.141 104.104 147.239 103.944 147.307C103.784 147.374 103.612 147.41 103.438 147.411Z" fill="#E0E0E0"/>
<path d="M99.8218 146.492V145.667H81.1869V146.492H99.8218Z" fill="#E0E0E0"/>
<path d="M124.561 96.0594C142.245 78.3753 142.245 49.7038 124.561 32.0197C106.877 14.3357 78.2058 14.3357 60.5218 32.0197C42.8377 49.7038 42.8377 78.3753 60.5218 96.0594C78.2058 113.743 106.877 113.743 124.561 96.0594Z" fill="#E0E0E0"/>
<path d="M118.158 89.656C132.306 75.5084 132.306 52.5707 118.158 38.4231C104.01 24.2755 81.0726 24.2755 66.925 38.4231C52.7775 52.5707 52.7775 75.5084 66.925 89.656C81.0726 103.804 104.01 103.804 118.158 89.656Z" fill="#FAFAFA"/>
<path d="M118.458 72.1783C122.955 57.864 114.996 42.6146 100.682 38.1178C86.3679 33.621 71.1185 41.5796 66.6217 55.8939C62.1249 70.2082 70.0835 85.4576 84.3978 89.9544C98.7121 94.4512 113.962 86.4926 118.458 72.1783Z" fill="#E0E0E0"/>
<path d="M109.089 71.4194C113.162 62.2837 109.058 51.5756 99.9221 47.5024C90.7864 43.4292 80.0784 47.5332 76.0051 56.6689C71.9319 65.8047 76.0359 76.5127 85.1716 80.5859C94.3074 84.6592 105.015 80.5552 109.089 71.4194Z" fill="#FAFAFA"/>
<path d="M96.6449 72.1132C101.103 69.8465 102.88 64.3949 100.613 59.9367C98.3463 55.4785 92.8948 53.7019 88.4366 55.9686C83.9784 58.2353 82.2018 63.6868 84.4684 68.145C86.7351 72.6032 92.1867 74.3798 96.6449 72.1132Z" fill="#E0E0E0"/>
<path d="M93.9365 65.3737L81.3657 62.0586L84.5829 58.7564L58.5732 37.398L60.0116 35.9937L86.1574 57.2244L88.681 53.7732L93.9365 65.3737Z" fill="#EBEBEB"/>
<path d="M58.5732 37.3977L58.1816 37.619C57.2241 38.1602 56.14 38.4375 55.0402 38.4225C53.9404 38.4076 52.8643 38.1009 51.9218 37.5339L41.0234 30.9889L48.3599 29.8357L47.5684 22.1162L57.5986 28.9846C58.7009 29.7393 59.5307 30.8288 59.9653 32.092C60.3999 33.3551 60.4161 34.7246 60.0115 35.9977L58.5732 37.3977Z" fill="#EBEBEB"/>
<path d="M166.62 173.161C166.669 170.521 167.688 167.991 169.484 166.054C170.347 169.621 166.62 173.161 166.62 173.161Z" fill="#EBEBEB"/>
<path d="M170.773 171.153C173.214 170.142 175.941 170.066 178.433 170.94C175.51 173.153 170.773 171.153 170.773 171.153Z" fill="#EBEBEB"/>
<path d="M171.25 168.837C170.853 166.791 171.223 164.671 172.289 162.88C173.544 165.497 171.25 168.837 171.25 168.837Z" fill="#EBEBEB"/>
<path d="M155.172 160.501C161.258 162.118 164.534 167.399 164.534 167.399C159.321 167.399 155.172 160.501 155.172 160.501Z" fill="#EBEBEB"/>
<path d="M164.884 162.991C164.569 156.446 170.965 149.037 170.965 149.037C169.999 157.165 164.884 162.991 164.884 162.991Z" fill="#EBEBEB"/>
<path d="M164.85 144.347C164.974 147.621 164.177 150.865 162.552 153.71C161.65 149.514 164.85 144.347 164.85 144.347Z" fill="#EBEBEB"/>
<path d="M162.407 157.654C157.62 157.144 155.015 152.382 155.015 152.382C160.781 153.994 162.407 157.654 162.407 157.654Z" fill="#EBEBEB"/>
<path d="M152.062 177.655C154.307 176.264 156.985 175.747 159.586 176.204C157.058 178.868 152.062 177.655 152.062 177.655Z" fill="#EBEBEB"/>
<path d="M164.462 179.809C163.852 181.357 162.714 182.64 161.25 183.43C161.454 181.221 164.462 179.809 164.462 179.809Z" fill="#EBEBEB"/>
<path d="M163.85 179.102C162.121 180.104 160.095 180.465 158.126 180.123C159.969 178.204 163.85 179.102 163.85 179.102Z" fill="#EBEBEB"/>
<path d="M166.297 187.915C166.292 187.883 166.292 187.85 166.297 187.817C166.297 187.736 166.297 187.643 166.297 187.532C166.297 187.26 166.297 186.894 166.297 186.434C166.297 185.974 166.297 185.374 166.297 184.698C166.297 184.021 166.297 183.251 166.25 182.4C166.208 180.698 166.089 178.676 165.914 176.442C165.74 174.208 165.446 171.74 165.063 169.169C164.284 164.037 163.259 159.429 162.408 156.126C161.982 154.475 161.637 153.147 161.382 152.228C161.259 151.781 161.165 151.428 161.093 151.169L161.025 150.892C161.02 150.86 161.02 150.827 161.025 150.794C161.042 150.823 161.055 150.855 161.063 150.888L161.152 151.156L161.476 152.203C161.761 153.113 162.135 154.441 162.574 156.088C163.706 160.388 164.601 164.746 165.254 169.144C165.629 171.697 165.897 174.182 166.08 176.429C166.263 178.676 166.348 180.706 166.369 182.413C166.399 183.264 166.391 184.034 166.369 184.711C166.348 185.387 166.369 185.987 166.344 186.447C166.318 186.906 166.314 187.277 166.306 187.545C166.306 187.66 166.306 187.753 166.306 187.83L166.297 187.915Z" fill="#E0E0E0"/>
<path d="M157.514 174.059C157.548 174.008 159.48 175.276 161.833 176.889C164.187 178.502 166.063 179.847 166.029 179.898C165.995 179.949 164.063 178.681 161.71 177.068C159.357 175.455 157.48 174.106 157.514 174.059Z" fill="#E0E0E0"/>
<path d="M166.029 174.757C166.114 174.636 166.214 174.526 166.327 174.429L167.178 173.6L170.055 170.902C171.157 169.868 172.152 168.931 172.931 168.208L173.782 167.387C173.885 167.28 173.999 167.186 174.123 167.106C174.044 167.231 173.95 167.345 173.842 167.446C173.655 167.659 173.37 167.953 173.016 168.297C172.31 169.021 171.314 169.999 170.182 171.042C169.05 172.085 168.02 173.029 167.263 173.698C166.884 174.029 166.574 174.293 166.352 174.476C166.256 174.582 166.147 174.676 166.029 174.757Z" fill="#E0E0E0"/>
<path d="M151.368 170.957C151.368 170.957 156.313 170.863 158.407 174.753C157.019 174.713 155.659 174.349 154.437 173.69C153.215 173.031 152.164 172.095 151.368 170.957Z" fill="#EBEBEB"/>
<path d="M158.122 168.969C158.122 168.969 162.148 171.842 161.526 176.204C160.434 175.347 159.558 174.246 158.967 172.99C158.376 171.734 158.087 170.357 158.122 168.969Z" fill="#EBEBEB"/>
<path d="M179.331 161.91C179.331 161.91 177.744 167.442 172.693 168.442C173.214 166.911 174.086 165.523 175.238 164.389C176.391 163.255 177.793 162.406 179.331 161.91Z" fill="#EBEBEB"/>
<path d="M155.926 141.313C155.926 141.313 162.237 145.428 161.556 152.122C159.84 150.884 158.437 149.262 157.459 147.386C156.482 145.509 155.957 143.429 155.926 141.313Z" fill="#EBEBEB"/>
<path d="M176.928 177.923C176.798 178.047 176.655 178.157 176.502 178.251C176.23 178.447 175.842 178.74 175.37 179.102C174.149 180.078 173.011 181.152 171.966 182.315C170.924 183.483 169.979 184.734 169.14 186.055C168.821 186.562 168.57 186.979 168.404 187.272C168.324 187.424 168.228 187.566 168.119 187.698C168.171 187.531 168.241 187.37 168.327 187.217C168.472 186.911 168.706 186.481 169.012 185.94C170.627 183.22 172.761 180.844 175.293 178.949C175.779 178.587 176.183 178.31 176.468 178.136C176.614 178.05 176.768 177.978 176.928 177.923Z" fill="#E0E0E0"/>
<path d="M171.434 182.034C170.977 179.433 171.493 176.755 172.885 174.51C173.561 179.2 171.434 182.034 171.434 182.034Z" fill="#EBEBEB"/>
<path d="M175.68 179.719C177.349 178.77 179.309 178.467 181.187 178.868C178.153 180.481 175.68 179.719 175.68 179.719Z" fill="#EBEBEB"/>
<path d="M157.097 188.426L159.463 203.984H173.217L176.408 188.651L157.097 188.426Z" fill="#EBEBEB"/>
<path d="M174.484 198.396C174.484 198.443 170.961 198.477 166.616 198.477C162.271 198.477 158.743 198.443 158.743 198.396C158.743 198.349 162.267 198.315 166.616 198.315C170.965 198.315 174.484 198.354 174.484 198.396Z" fill="#FAFAFA"/>
<path d="M174.539 197.656C174.539 197.698 170.99 197.736 166.616 197.736C162.241 197.736 158.688 197.698 158.688 197.656C158.688 197.613 162.237 197.575 166.616 197.575C170.994 197.575 174.539 197.587 174.539 197.656Z" fill="#FAFAFA"/>
<path d="M174.51 196.771C174.51 196.814 170.965 196.852 166.586 196.852C162.207 196.852 158.662 196.814 158.662 196.771C158.662 196.728 162.211 196.69 166.586 196.69C170.961 196.69 174.51 196.724 174.51 196.771Z" fill="#FAFAFA"/>
<path d="M161.041 203.099C160.85 202.456 160.708 201.801 160.615 201.137C160.477 200.484 160.389 199.821 160.352 199.154C160.69 200.447 160.919 201.767 161.037 203.099H161.041Z" fill="#FAFAFA"/>
<path d="M161.982 202.933C161.884 202.3 161.827 201.662 161.811 201.022C161.739 200.385 161.71 199.744 161.722 199.103C161.97 200.363 162.057 201.65 161.982 202.933Z" fill="#FAFAFA"/>
<path d="M163.684 202.933C163.498 202.293 163.378 201.635 163.327 200.971C163.221 200.314 163.186 199.648 163.22 198.984C163.347 199.635 163.435 200.293 163.484 200.954C163.587 201.609 163.654 202.27 163.684 202.933Z" fill="#FAFAFA"/>
<path d="M164.88 203.014C164.749 202.358 164.685 201.691 164.688 201.022C164.639 200.355 164.661 199.685 164.752 199.022C164.822 199.685 164.855 200.351 164.85 201.018C164.898 201.682 164.908 202.348 164.88 203.014Z" fill="#FAFAFA"/>
<path d="M166.999 202.933C166.898 202.308 166.85 201.676 166.855 201.043C166.8 200.412 166.8 199.777 166.855 199.146C166.956 199.772 167.004 200.405 166.999 201.039C167.054 201.669 167.054 202.303 166.999 202.933Z" fill="#FAFAFA"/>
<path d="M168.548 203.014C168.47 202.366 168.448 201.712 168.484 201.06C168.464 200.408 168.495 199.755 168.578 199.107C168.656 199.755 168.677 200.409 168.642 201.06C168.662 201.713 168.631 202.366 168.548 203.014Z" fill="#FAFAFA"/>
<path d="M169.999 202.805C169.983 202.122 170.021 201.439 170.114 200.762C170.152 200.081 170.246 199.403 170.394 198.737C170.408 199.42 170.368 200.103 170.275 200.779C170.234 201.461 170.141 202.138 169.999 202.805Z" fill="#FAFAFA"/>
<path d="M171.872 202.601C171.871 202.014 171.948 201.43 172.101 200.864C172.199 200.286 172.37 199.722 172.612 199.188C172.526 199.761 172.408 200.33 172.259 200.89C172.161 201.467 172.032 202.038 171.872 202.601Z" fill="#FAFAFA"/>
<path d="M155.518 185.349V188.26C155.518 188.564 155.639 188.855 155.853 189.069C156.068 189.284 156.359 189.405 156.663 189.405H176.579C176.883 189.405 177.174 189.284 177.39 189.07C177.605 188.855 177.726 188.564 177.728 188.26V185.349H155.518Z" fill="#EBEBEB"/>
<path d="M157.245 189.405L157.407 190.332L175.786 191.643L176.25 189.405H157.245Z" fill="#E0E0E0"/>
<path d="M176.727 204.384C176.727 204.448 138.687 204.495 91.7701 204.495C44.8532 204.495 6.80469 204.465 6.80469 204.384C6.80469 204.303 44.8362 204.273 91.7701 204.273C138.704 204.273 176.727 204.325 176.727 204.384Z" fill="#263238"/>
<path d="M0 78.391C0 78.391 4.36189 96.2642 23.8862 92.1619C23.8862 92.1619 18.2306 74.0717 0 78.391Z" fill="#455A64"/>
<path d="M9.43359 105.448C9.43359 105.448 18.3957 118.81 33.2049 109.567C33.2049 109.567 23.1065 96.4092 9.43359 105.448Z" fill="#455A64"/>
<path d="M23.7153 125.836C23.7153 125.836 36.7925 136.955 49.3165 123.172C49.3165 123.185 35.1329 112.588 23.7153 125.836Z" fill="#455A64"/>
<path d="M37.232 82.9399C37.232 82.9399 22.7292 89.9105 29.7679 105.886C30.8019 105.311 44.1047 97.4555 37.232 82.9399Z" fill="#455A64"/>
<path d="M40.3807 102.201C40.3807 102.201 33.1463 111.967 43.9255 120.355C44.5979 119.308 50.9131 109.993 40.3807 102.201Z" fill="#455A64"/>
<path d="M6.83394 57.8286C6.83394 57.8286 5.17003 72.2973 20.809 74.6294C20.809 74.6294 21.5708 59.6244 6.83394 57.8286Z" fill="#455A64"/>
<path d="M29.2655 43.1809C29.2655 43.1809 16.6139 48.462 22.1077 63.2882C22.1077 63.2882 34.7849 56.9645 29.2655 43.1809Z" fill="#455A64"/>
<path d="M36.8992 64.3352C36.8992 64.3352 20.1496 66.2459 21.622 84.4595C21.622 84.4595 38.7291 81.4126 36.8992 64.3352Z" fill="#455A64"/>
<path d="M60.7376 127.972L60.5249 127.908L59.8951 127.742C59.3461 127.598 58.5248 127.402 57.4949 127.066C54.5743 126.165 51.7504 124.976 49.0648 123.516C45.0876 121.347 41.4157 118.66 38.1452 115.525C36.205 113.669 34.3989 111.678 32.7407 109.567L31.464 107.865C31.2512 107.584 31.0385 107.299 30.8299 107.014C30.6214 106.729 30.4342 106.418 30.2384 106.12L29.0511 104.299L27.9617 102.392L27.417 101.43L26.9319 100.447C26.6127 99.7963 26.2851 99.1495 25.9744 98.4984L25.1233 96.5323C24.9871 96.2047 24.8424 95.8812 24.6978 95.5536C24.5531 95.2259 24.4594 94.8982 24.3445 94.5705L23.6466 92.6215C23.4509 91.9662 23.2594 91.3193 23.0722 90.6768C22.9785 90.3533 22.8807 90.0342 22.787 89.7193C22.6934 89.4044 22.6296 89.0767 22.553 88.7618C22.404 88.1234 22.2551 87.4851 22.1274 86.8681C21.1846 82.442 20.7789 77.9184 20.9189 73.3951C21.0177 70.3403 21.3578 67.2981 21.9359 64.2969C22.1615 63.2372 22.3615 62.4202 22.4891 61.867C22.5487 61.5904 22.5955 61.3818 22.6296 61.2329C22.6636 61.084 22.6721 61.0159 22.6721 61.0159C22.6721 61.0159 22.6466 61.084 22.6083 61.2286C22.57 61.3733 22.5189 61.5819 22.4508 61.8542C22.3147 62.4117 22.1019 63.2245 21.8636 64.2798C20.3313 71.7553 20.369 79.4675 21.9742 86.9276C22.1189 87.5532 22.2679 88.183 22.3998 88.8256C22.4806 89.1448 22.5402 89.4682 22.6338 89.7873C22.7275 90.1065 22.8211 90.4257 22.919 90.7491C23.1062 91.3917 23.2977 92.0257 23.4934 92.6981L24.1913 94.6557C24.3062 94.9833 24.4254 95.3153 24.5446 95.6429C24.6637 95.9706 24.8169 96.294 24.9701 96.6217L25.8212 98.6005C26.1276 99.2516 26.4553 99.8984 26.7787 100.554C26.9404 100.886 27.1021 101.213 27.2681 101.541C27.434 101.869 27.6298 102.184 27.8128 102.507L28.9065 104.422L30.098 106.248C30.298 106.546 30.4852 106.852 30.6895 107.146L31.3278 107.997L32.6045 109.699C34.2678 111.811 36.0796 113.802 38.026 115.657C41.3144 118.801 45.0083 121.491 49.0095 123.657C51.7077 125.109 54.5465 126.282 57.4822 127.159C58.5163 127.487 59.3418 127.666 59.8951 127.802L60.5291 127.946L60.7376 127.972Z" fill="#263238"/>
<path d="M41.9468 110.073C41.9286 110.215 41.9286 110.358 41.9468 110.499C41.9468 110.763 42.0063 111.142 42.0659 111.605C42.1766 112.542 42.3723 113.827 42.6447 115.231C42.917 116.635 43.2277 117.904 43.4702 118.81C43.5936 119.265 43.7 119.631 43.7809 119.882C43.8104 120.016 43.8577 120.145 43.9213 120.265C43.9168 120.121 43.8939 119.978 43.8532 119.84L43.6022 118.759C43.3894 117.844 43.1085 116.58 42.8319 115.176C42.5553 113.772 42.3468 112.495 42.1978 111.567C42.1298 111.142 42.0702 110.767 42.0191 110.469C42.0104 110.335 41.9861 110.202 41.9468 110.073Z" fill="#263238"/>
<path d="M38.3848 124.576C38.5277 124.582 38.6708 124.569 38.8103 124.538L39.9253 124.376C40.8615 124.236 42.1594 124.053 43.5935 123.887C45.0276 123.721 46.3341 123.597 47.2788 123.517L48.398 123.419C48.5417 123.417 48.6847 123.397 48.8235 123.359C48.6821 123.343 48.5394 123.343 48.398 123.359C48.1299 123.359 47.7469 123.359 47.2745 123.397C46.3255 123.444 45.0148 123.546 43.5765 123.712C42.1381 123.878 40.8402 124.087 39.904 124.261C39.4401 124.346 39.0529 124.423 38.8018 124.483C38.6595 124.497 38.5194 124.528 38.3848 124.576Z" fill="#263238"/>
<path d="M20.7573 106.852C20.9137 106.905 21.0747 106.943 21.2382 106.967L22.5617 107.231C23.6809 107.448 25.2256 107.771 26.915 108.18C28.6045 108.588 30.1237 109.009 31.2174 109.324L32.494 109.699C32.6511 109.755 32.8137 109.795 32.9791 109.818C32.833 109.739 32.679 109.677 32.5195 109.631C32.2174 109.52 31.7791 109.371 31.2429 109.205C30.1577 108.856 28.6428 108.414 26.9448 108.005C25.2469 107.597 23.7021 107.29 22.5744 107.103C22.0127 107.009 21.5531 106.941 21.2382 106.903C21.0802 106.869 20.919 106.852 20.7573 106.852Z" fill="#263238"/>
<path d="M33.5584 93.1577C33.4437 93.2881 33.3438 93.4309 33.2605 93.5833C33.0775 93.8726 32.8349 94.3067 32.5498 94.8599C31.0785 97.721 30.1808 100.842 29.9071 104.048C29.8561 104.66 29.8348 105.154 29.8348 105.499C29.8194 105.677 29.8194 105.856 29.8348 106.035C29.8704 105.86 29.8889 105.682 29.8901 105.503C29.8901 105.162 29.9582 104.652 30.022 104.06C30.3694 100.885 31.2589 97.7936 32.6519 94.9195C32.9158 94.3663 33.1456 93.9237 33.3073 93.6428C33.4068 93.4898 33.4909 93.3273 33.5584 93.1577Z" fill="#263238"/>
<path d="M14.1323 84.8252C14.2503 84.9289 14.3786 85.0202 14.5153 85.0975L15.592 85.7955C16.4941 86.3955 17.7197 87.2551 18.9964 88.2934C20.273 89.3318 21.3752 90.3488 22.1454 91.1063L23.0519 92.0085C23.1562 92.1286 23.2732 92.237 23.4008 92.3319C23.3164 92.1984 23.218 92.0743 23.1072 91.9617C22.9114 91.7276 22.6178 91.4042 22.2561 91.0127C21.2755 89.9926 20.2323 89.0347 19.1325 88.1445C18.0324 87.2543 16.8784 86.4329 15.6771 85.6848C15.2175 85.3954 14.826 85.1741 14.5706 85.0337C14.4322 84.9492 14.2853 84.8793 14.1323 84.8252Z" fill="#263238"/>
<path d="M32.4227 71.5991C32.4227 71.5991 32.3674 71.6332 32.2823 71.7055L31.9163 72.0332C31.5971 72.3226 31.1461 72.7524 30.5971 73.2886C29.5034 74.3652 28.0438 75.9014 26.5161 77.6845C24.9883 79.4676 23.7117 81.157 22.8265 82.4124C22.401 83.0379 22.0308 83.5486 21.7967 83.9103L21.5286 84.3359C21.4941 84.381 21.4668 84.4313 21.4478 84.4848C21.4478 84.4848 21.4946 84.4465 21.5627 84.3571L21.8563 83.9614L22.9329 82.4975C23.8479 81.2676 25.1458 79.5952 26.6607 77.8164C28.1757 76.0376 29.6396 74.4886 30.695 73.3907L31.9716 72.114L32.3121 71.7608C32.3572 71.7131 32.3945 71.6585 32.4227 71.5991Z" fill="#263238"/>
<path d="M12.2466 62.5393C12.3528 62.6995 12.4724 62.8504 12.604 62.9904L13.6211 64.1904C14.4722 65.2075 15.6169 66.6416 16.7957 68.2842C17.9745 69.9269 18.9575 71.4801 19.6469 72.6163C19.9746 73.161 20.2427 73.6164 20.4512 73.9653C20.5421 74.1348 20.646 74.297 20.7619 74.4505C20.6956 74.2696 20.6145 74.0945 20.5193 73.927C20.3491 73.5951 20.0937 73.1227 19.7618 72.5483C19.1022 71.3908 18.1319 69.829 16.9489 68.1736C15.7659 66.5182 14.6041 65.1011 13.7232 64.1011C13.2977 63.6032 12.919 63.2074 12.6594 62.9393C12.5358 62.7923 12.3975 62.6582 12.2466 62.5393Z" fill="#263238"/>
<path d="M27.3924 48.7898C27.2887 48.9589 27.2004 49.1369 27.1286 49.3217C26.9711 49.6664 26.7498 50.1728 26.4817 50.7984C25.9498 52.0538 25.2476 53.7772 24.5285 55.7475C23.8093 57.7178 23.2007 59.4839 22.7879 60.7818C22.5837 61.4286 22.422 61.9563 22.3156 62.3223C22.2503 62.5091 22.2019 62.7014 22.1709 62.8968C22.2643 62.7154 22.3412 62.526 22.4007 62.3308C22.5369 61.9393 22.7156 61.4286 22.9284 60.8116C23.3752 59.5349 23.9965 57.7519 24.7199 55.8029C25.4434 53.8538 26.1072 52.1176 26.6094 50.8409C26.8477 50.2324 27.0349 49.726 27.1967 49.3388C27.2766 49.1614 27.3421 48.9778 27.3924 48.7898Z" fill="#263238"/>
<path d="M183.999 75.8504C183.999 75.8504 179.638 93.7235 160.113 89.6255C160.113 89.6255 165.773 71.531 183.999 75.8504Z" fill="#455A64"/>
<path d="M174.565 102.907C174.565 102.907 165.603 116.273 150.793 107.03C150.793 107.013 160.892 93.8725 174.565 102.907Z" fill="#455A64"/>
<path d="M160.279 123.295C160.279 123.295 147.206 134.419 134.682 120.631C134.682 120.631 148.866 110.052 160.279 123.295Z" fill="#455A64"/>
<path d="M146.768 80.4041C146.768 80.4041 161.271 87.3746 154.232 103.345C153.202 102.758 139.917 94.9196 146.768 80.4041Z" fill="#455A64"/>
<path d="M143.619 99.6599C143.619 99.6599 150.853 109.426 140.074 117.818C139.402 116.771 133.086 107.439 143.619 99.6599Z" fill="#455A64"/>
<path d="M177.169 55.292C177.169 55.292 178.833 69.7607 163.19 72.0927C163.19 72.0927 162.428 57.0878 177.169 55.292Z" fill="#455A64"/>
<path d="M154.747 40.6279C154.747 40.6279 167.398 45.9133 161.904 60.7395C161.892 60.7522 149.214 54.4243 154.747 40.6279Z" fill="#455A64"/>
<path d="M147.087 61.7988C147.087 61.7988 163.837 63.7096 162.365 81.9401C162.377 81.9401 145.27 78.8762 147.087 61.7988Z" fill="#455A64"/>
<path d="M123.256 125.431L123.469 125.372L124.094 125.202C124.647 125.057 125.464 124.865 126.494 124.529C129.414 123.626 132.238 122.438 134.924 120.98C138.908 118.805 142.585 116.112 145.861 112.971C147.795 111.123 149.598 109.142 151.257 107.043L152.512 105.341L153.151 104.49C153.355 104.196 153.542 103.894 153.738 103.592C154.134 102.992 154.525 102.384 154.925 101.775L156.015 99.8643C156.198 99.5452 156.381 99.226 156.559 98.9068L157.045 97.9238C157.368 97.2685 157.696 96.6472 158.002 95.9748L158.853 94.0045C158.989 93.6768 159.134 93.3577 159.279 93.03C159.423 92.7023 159.517 92.3704 159.632 92.0427L160.33 90.0979C160.526 89.4426 160.717 88.7915 160.904 88.1489C161.002 87.8298 161.096 87.5106 161.189 87.1914C161.283 86.8723 161.347 86.5531 161.424 86.2339C161.577 85.5956 161.726 84.9658 161.87 84.3445C162.814 79.9085 163.222 75.375 163.083 70.8418C162.983 67.7854 162.642 64.7417 162.062 61.7392C161.836 60.6839 161.636 59.8668 161.513 59.3094C161.449 59.037 161.402 58.8242 161.368 58.6753C161.334 58.5263 161.33 58.4583 161.33 58.4583L161.389 58.671L161.547 59.3008C161.683 59.8541 161.896 60.6711 162.138 61.7265C162.743 64.7309 163.103 67.7793 163.215 70.8418C163.365 75.3878 162.959 79.9351 162.007 84.3828L161.581 86.2765C161.504 86.5957 161.441 86.9233 161.347 87.2382C161.253 87.5532 161.16 87.8808 161.062 88.2C160.875 88.8468 160.683 89.4979 160.487 90.1533C160.257 90.8001 160.028 91.4299 159.789 92.1065C159.674 92.4385 159.555 92.7662 159.436 93.0981C159.317 93.43 159.164 93.7492 159.011 94.0769L158.16 96.0557C157.849 96.7067 157.521 97.3323 157.198 98.0089L156.713 98.9962L156.164 99.958L155.07 101.873L153.878 103.699C153.683 104.001 153.491 104.307 153.287 104.596L152.649 105.448L151.372 107.15C149.707 109.262 147.894 111.253 145.946 113.107C142.66 116.255 138.966 118.947 134.963 121.112C132.265 122.563 129.426 123.736 126.49 124.61C125.456 124.938 124.63 125.121 124.077 125.253L123.447 125.402C123.384 125.414 123.32 125.424 123.256 125.431Z" fill="#263238"/>
<path d="M142.053 107.537C142.071 107.678 142.071 107.821 142.053 107.963C142.032 108.222 141.994 108.601 141.938 109.069C141.823 110.001 141.632 111.286 141.355 112.695C141.079 114.103 140.777 115.367 140.53 116.274C140.406 116.729 140.3 117.091 140.219 117.342C140.188 117.476 140.141 117.606 140.079 117.729C140.085 117.592 140.11 117.456 140.151 117.325C140.219 117.027 140.3 116.665 140.398 116.24C140.611 115.329 140.896 114.061 141.168 112.656C141.44 111.252 141.657 109.976 141.802 109.048C141.874 108.622 141.934 108.252 141.981 107.954C141.987 107.813 142.011 107.672 142.053 107.537Z" fill="#263238"/>
<path d="M145.619 122.04C145.476 122.046 145.333 122.033 145.194 122.002L144.083 121.84C143.142 121.699 141.849 121.516 140.41 121.346C138.972 121.176 137.67 121.057 136.725 120.976L135.61 120.878C135.466 120.878 135.323 120.858 135.185 120.818C135.326 120.802 135.469 120.802 135.61 120.818C135.874 120.818 136.257 120.818 136.734 120.857C137.678 120.904 138.989 121.001 140.427 121.172C141.866 121.342 143.164 121.546 144.1 121.721C144.564 121.806 144.951 121.882 145.202 121.942C145.344 121.958 145.484 121.991 145.619 122.04Z" fill="#263238"/>
<path d="M163.258 104.312C163.1 104.367 162.938 104.407 162.772 104.431L161.449 104.69C160.33 104.912 158.789 105.235 157.096 105.644C155.402 106.052 153.887 106.473 152.793 106.788L151.495 107.163C151.338 107.217 151.175 107.256 151.01 107.278C151.16 107.204 151.315 107.142 151.474 107.09C151.772 106.98 152.21 106.835 152.751 106.665C153.836 106.316 155.355 105.873 157.049 105.461C158.743 105.048 160.292 104.75 161.419 104.563C161.981 104.469 162.441 104.401 162.755 104.358C162.921 104.327 163.089 104.311 163.258 104.312Z" fill="#263238"/>
<path d="M150.44 90.6172C150.554 90.7561 150.654 90.9057 150.738 91.064C150.926 91.3534 151.164 91.7875 151.453 92.3407C152.921 95.203 153.817 98.3235 154.092 101.528C154.143 102.141 154.168 102.639 154.164 102.984C154.182 103.161 154.182 103.339 154.164 103.516C154.131 103.342 154.112 103.165 154.109 102.988C154.109 102.643 154.045 102.137 153.977 101.541C153.627 98.3633 152.737 95.2688 151.343 92.3917C151.079 91.8428 150.853 91.4002 150.687 91.1151C150.59 90.9571 150.507 90.7904 150.44 90.6172Z" fill="#263238"/>
<path d="M169.871 82.2849C169.753 82.3898 169.623 82.4812 169.484 82.5573L168.412 83.2594C167.509 83.8552 166.284 84.7148 165.007 85.7531C163.73 86.7915 162.628 87.8086 161.858 88.566L160.952 89.4725C160.847 89.5898 160.732 89.6967 160.607 89.7916C160.689 89.6574 160.786 89.5331 160.896 89.4214C161.092 89.1916 161.386 88.8639 161.747 88.4724C162.729 87.4535 163.772 86.4957 164.871 85.6042C165.969 84.7132 167.122 83.8917 168.322 83.1445C168.782 82.8594 169.173 82.6381 169.429 82.4934C169.569 82.4096 169.717 82.3397 169.871 82.2849Z" fill="#263238"/>
<path d="M151.581 69.063C151.631 69.091 151.677 69.1269 151.717 69.1694L152.087 69.497C152.406 69.7864 152.853 70.212 153.402 70.7524C154.496 71.8248 155.955 73.361 157.483 75.1441C159.011 76.9272 160.287 78.6209 161.177 79.872C161.602 80.4975 161.968 81.0125 162.202 81.3699L162.47 81.7955C162.505 81.8424 162.532 81.894 162.551 81.9487C162.508 81.9092 162.469 81.865 162.436 81.8167L162.143 81.421L161.066 79.9613C160.151 78.7315 158.853 77.0591 157.338 75.2803C155.823 73.5015 154.359 71.9567 153.304 70.8588L152.027 69.5822L151.683 69.2247C151.64 69.1766 151.606 69.122 151.581 69.063Z" fill="#263238"/>
<path d="M171.769 59.9988C171.664 60.16 171.544 60.311 171.411 60.4499L170.394 61.6499C169.543 62.6712 168.398 64.1011 167.22 65.748C166.041 67.3948 165.058 68.9439 164.373 70.0758L163.564 71.4248C163.471 71.5943 163.367 71.7578 163.253 71.9142C163.319 71.7325 163.402 71.5572 163.5 71.3908C163.666 71.0588 163.926 70.5865 164.253 70.0077C164.913 68.8545 165.883 67.2885 167.066 65.6373C168.249 63.9862 169.411 62.5606 170.292 61.5648C170.718 61.0669 171.096 60.6669 171.356 60.4031C171.483 60.2582 171.621 60.1231 171.769 59.9988Z" fill="#263238"/>
<path d="M156.606 46.2534C156.71 46.4206 156.799 46.5973 156.87 46.7811C157.032 47.1301 157.253 47.6322 157.517 48.262C158.049 49.5131 158.751 51.2409 159.47 53.2112C160.189 55.1815 160.798 56.9433 161.21 58.2412C161.419 58.8923 161.576 59.4157 161.683 59.7859C161.747 59.9715 161.796 60.1623 161.827 60.3562C161.74 60.18 161.669 59.9963 161.615 59.8072L161.083 58.2837C160.636 57.0071 160.015 55.224 159.291 53.275C158.568 51.326 157.891 49.577 157.393 48.3131L156.802 46.8109C156.725 46.6295 156.659 46.4433 156.606 46.2534Z" fill="#263238"/>
<path d="M114.239 151.781C114.239 151.781 116.443 160.586 114.239 164.156C114.149 164.305 114.051 164.454 113.949 164.582C112.516 166.643 110.446 168.178 108.058 168.952C105.669 169.726 103.093 169.696 100.723 168.867L75.9263 160.356L77.82 153.701L93.7398 155.667L110.728 151.041L114.239 151.781Z" fill="#FFBE9D"/>
<path d="M103.183 138.185C103.183 138.185 111.123 161.322 110.728 166.872C110.332 172.421 94.9822 201.494 94.9822 201.494L88.2585 198.405C88.2585 198.405 90.8374 190.247 92.5566 183.111C93.4077 179.506 93.7652 175.127 94.429 173.357C96.4461 168.067 98.8037 165.314 98.8037 165.314L87.9819 143.071L103.183 138.185Z" fill="#FFBE9D"/>
<path d="M81.4241 122.759C81.4241 122.759 79.0794 129.21 80.7007 135.304C82.3221 141.398 97.5823 166.37 97.5823 166.37L115.243 156.156C115.243 156.156 114.562 133.9 108.408 121.482L81.4241 122.759Z" fill="#263238"/>
<path d="M110.588 158.803C110.588 158.803 110.63 158.867 110.69 158.999C110.749 159.131 110.834 159.326 110.924 159.586C111.18 160.321 111.349 161.084 111.43 161.858C111.544 163.01 111.514 164.17 111.341 165.314C111.243 165.961 111.128 166.629 110.954 167.318C110.779 168.008 110.549 168.706 110.298 169.408C109.29 172.233 108.209 174.714 107.422 176.51C107.026 177.408 106.698 178.127 106.464 178.638C106.353 178.863 106.264 179.063 106.192 179.204C106.162 179.272 106.125 179.336 106.081 179.395C106.095 179.323 106.118 179.253 106.149 179.187L106.383 178.604L107.277 176.476C108.026 174.663 109.085 172.174 110.09 169.361C110.337 168.659 110.562 167.965 110.741 167.293C110.92 166.62 111.039 165.948 111.141 165.31C111.322 164.184 111.369 163.042 111.281 161.905C111.22 161.138 111.077 160.379 110.856 159.641C110.686 159.088 110.566 158.811 110.588 158.803Z" fill="#EB996E"/>
<path d="M93.1781 180.072C93.1737 179.873 93.1865 179.673 93.2164 179.476C93.2504 179.089 93.3185 178.536 93.4122 177.855C93.6427 176.067 94.049 174.307 94.625 172.599C95.2527 170.908 96.0677 169.292 97.0549 167.782C97.4251 167.203 97.7357 166.735 97.957 166.42C98.0621 166.25 98.1832 166.091 98.3188 165.944C98.2384 166.127 98.1415 166.302 98.0294 166.467C97.8081 166.833 97.5272 167.318 97.1783 167.863C96.2378 169.385 95.4496 170.995 94.825 172.672C94.2534 174.367 93.8263 176.108 93.5483 177.876C93.4377 178.523 93.3483 179.063 93.2802 179.485C93.2678 179.684 93.2335 179.88 93.1781 180.072Z" fill="#EB996E"/>
<path d="M110.489 153.96C110.453 153.896 110.426 153.827 110.408 153.756L110.216 153.164C110.051 152.615 109.821 151.888 109.544 150.981C108.978 149.134 108.174 146.594 107.221 143.811C106.267 141.028 105.344 138.525 104.667 136.717L103.859 134.589C103.774 134.355 103.706 134.164 103.646 134.006C103.616 133.94 103.596 133.87 103.586 133.798C103.63 133.856 103.665 133.92 103.689 133.989L103.94 134.559C104.157 135.053 104.455 135.776 104.812 136.687C105.531 138.479 106.476 140.977 107.433 143.764C108.391 146.551 109.17 149.105 109.702 150.96C109.965 151.888 110.174 152.662 110.306 153.169C110.365 153.407 110.417 153.594 110.455 153.769C110.475 153.831 110.487 153.895 110.489 153.96Z" fill="#455A64"/>
<path d="M100.097 136.696C100.072 136.725 99.5442 136.291 98.6037 135.725C98.0546 135.396 97.4862 135.101 96.9015 134.84C96.1812 134.529 95.4404 134.267 94.6844 134.057C93.924 133.86 93.1503 133.717 92.3694 133.632C91.7322 133.561 91.0912 133.531 90.4502 133.542C89.3523 133.563 88.6799 133.674 88.6714 133.632C88.8226 133.578 88.9798 133.542 89.1395 133.525C89.5715 133.45 90.0079 133.403 90.4459 133.385C91.0944 133.352 91.7443 133.366 92.3907 133.427C93.1838 133.506 93.9694 133.648 94.7397 133.853C95.5081 134.065 96.2593 134.335 96.9866 134.661C97.5755 134.934 98.1444 135.249 98.6888 135.602C99.0587 135.836 99.4127 136.095 99.7485 136.376C99.8773 136.468 99.9944 136.575 100.097 136.696Z" fill="#455A64"/>
<path d="M106.595 111.695C106.723 108.775 110.17 105.107 109.281 96.826C108.344 88.1405 107.025 80.4849 107.025 80.4849L100.476 82.0807L99.3525 80.4849L88.5393 83.0382L86.8371 84.6425L79.3346 87.7107C78.8909 87.8932 78.4885 88.1632 78.1514 88.5046C77.8143 88.8461 77.5495 89.252 77.3728 89.698L72.1471 102.988L60.7891 95.3493L56.4868 101.184C56.4868 101.184 70.7853 114.303 74.5217 113.925C77.8707 113.584 80.6751 108.503 82.0667 105.46L84.22 114.435C84.22 114.435 80.8156 120.436 80.1304 130.606L102.591 131.457C103.284 131.484 103.974 131.35 104.606 131.065C105.238 130.78 105.795 130.352 106.234 129.815L110.489 124.619C110.489 124.619 106.468 114.597 106.595 111.695Z" fill="#FF725E"/>
<path d="M103.966 82.089L106.864 80.7613L118.247 70.8417L122.341 53.5388L129.575 56.5645C129.575 56.5645 128.882 69.5651 127.975 74.0121C127.069 78.4591 108.787 92.9703 108.787 92.9703L103.966 82.089Z" fill="#FF725E"/>
<path d="M107.936 84.7402C108.033 85.2283 108.102 85.7212 108.145 86.2169C108.268 87.1914 108.426 88.4255 108.596 89.7873C108.766 91.149 108.911 92.4512 108.987 93.3661C109.03 93.8257 109.055 94.2172 109.068 94.4556C109.088 94.5896 109.088 94.7258 109.068 94.8598C108.961 94.373 108.886 93.8797 108.843 93.3832C108.719 92.4087 108.562 91.1788 108.387 89.8171C108.213 88.4553 108.072 87.1531 108 86.2339C107.962 85.7743 107.941 85.4041 107.932 85.1445C107.912 85.0104 107.913 84.8739 107.936 84.7402Z" fill="#263238"/>
<path d="M100.166 107.979C100.089 107.913 100.018 107.841 99.9534 107.762L99.3789 107.107C98.8682 106.516 98.1533 105.69 97.2852 104.677L90.4423 96.5917L86.6805 92.1192L86.6336 92.0639L86.6719 92.0043L87.5103 90.5447L87.6124 90.6851C87.1188 90.7872 86.6549 90.8128 86.2294 90.9021L86.106 90.9319V90.8043C86.3358 88.9999 86.5315 87.5062 86.6592 86.4381C86.7273 85.936 86.7826 85.5359 86.8251 85.2381C86.8367 85.094 86.8624 84.9515 86.9017 84.8125C86.9047 84.9548 86.8961 85.0971 86.8762 85.2381C86.8464 85.5402 86.8081 85.9402 86.757 86.4466C86.6422 87.5147 86.4804 88.9999 86.2847 90.8213L86.174 90.7277C86.5996 90.6255 87.089 90.5957 87.5571 90.4936L87.7656 90.4468L87.6635 90.634C87.4039 91.1021 87.1315 91.5915 86.8464 92.0979V91.983C87.9997 93.3533 89.2806 94.864 90.6211 96.4513L97.4299 104.571L99.4683 107.048L100.013 107.728C100.073 107.806 100.124 107.891 100.166 107.979Z" fill="#263238"/>
<path d="M101.847 106.75C101.844 106.655 101.852 106.561 101.872 106.469L101.987 105.664C102.094 104.966 102.264 103.962 102.485 102.715C102.706 101.468 102.966 99.9961 103.208 98.3492C103.483 96.5684 103.641 94.7716 103.681 92.9702C103.731 91.0218 103.588 89.0733 103.255 87.1529L103.332 87.2295L101.847 86.8763L101.621 86.821L101.821 86.7019L102.906 86.0635L102.881 86.1869C102.408 85.5146 102.06 84.872 101.732 84.3103C101.404 83.7485 101.136 83.2719 100.906 82.8634C100.676 82.4549 100.481 82.1612 100.366 81.9527C100.293 81.8519 100.229 81.7451 100.174 81.6335C100.2 81.6544 100.223 81.6787 100.242 81.7059C100.302 81.7767 100.357 81.8506 100.408 81.9272C100.549 82.1229 100.745 82.4251 100.987 82.8123L101.838 84.2422C102.174 84.7911 102.54 85.4337 103.008 86.0848L103.064 86.1614L102.983 86.2125L101.906 86.8636L101.881 86.6933L103.366 87.0338H103.43V87.0976C103.789 89.0337 103.95 91.0014 103.911 92.9702C103.868 94.784 103.701 96.5926 103.408 98.3832C103.157 100.034 102.872 101.511 102.638 102.749C102.404 103.988 102.213 104.962 102.072 105.681C102.008 106.009 101.957 106.273 101.915 106.477C101.901 106.57 101.878 106.661 101.847 106.75Z" fill="#263238"/>
<path d="M103.255 111.329C103.156 111.416 103.044 111.488 102.923 111.541C102.702 111.665 102.378 111.831 101.974 112.027C99.8594 113.039 97.6424 113.822 95.361 114.363C94.9355 114.465 94.5695 114.542 94.3227 114.584C94.1953 114.619 94.0631 114.634 93.9312 114.627C94.3866 114.459 94.8512 114.317 95.3227 114.201C96.1738 113.959 97.3696 113.601 98.6548 113.146C99.9399 112.69 101.089 112.222 101.91 111.869C102.347 111.661 102.796 111.48 103.255 111.329Z" fill="#263238"/>
<path d="M103.617 114.81C103.267 114.85 102.914 114.86 102.562 114.839C101.911 114.839 101.013 114.839 100.009 114.89C99.0043 114.942 98.1235 115.005 97.4766 115.061C97.1354 115.107 96.7905 115.119 96.4468 115.099C96.7843 114.991 97.1324 114.92 97.4851 114.886C98.132 114.793 99.0341 114.695 100.038 114.652C101.043 114.61 101.941 114.627 102.592 114.652C102.939 114.664 103.283 114.717 103.617 114.81Z" fill="#263238"/>
<path d="M101.979 111.418C101.85 110.648 101.793 109.867 101.808 109.086C101.752 108.307 101.769 107.525 101.859 106.75C101.99 107.52 102.047 108.301 102.03 109.082C102.089 109.86 102.071 110.643 101.979 111.418Z" fill="#263238"/>
<path d="M101.634 114.601C101.467 114.22 101.367 113.812 101.34 113.397C101.24 112.991 101.214 112.57 101.263 112.154C101.53 112.942 101.656 113.77 101.634 114.601Z" fill="#263238"/>
<path d="M104.293 131.206C104.251 130.997 104.228 130.785 104.225 130.572C104.195 130.146 104.153 129.568 104.085 128.84C103.961 127.376 103.74 125.359 103.412 123.146C103.085 120.933 102.697 118.929 102.404 117.508C102.255 116.788 102.119 116.21 102.029 115.805C101.967 115.6 101.927 115.389 101.91 115.176C101.994 115.373 102.063 115.576 102.114 115.784C102.229 116.176 102.387 116.75 102.54 117.465C102.889 118.895 103.297 120.891 103.629 123.108C103.961 125.325 104.157 127.363 104.242 128.823C104.289 129.559 104.306 130.151 104.31 130.563C104.326 130.778 104.32 130.993 104.293 131.206Z" fill="#263238"/>
<g opacity="0.3">
<path d="M86.1224 90.8721L86.6245 91.0807L86.0713 92.3573C86.0713 92.3573 94.5823 102.766 96.9101 104.779C99.7187 107.222 99.7996 107.537 99.7996 107.537L86.7564 92.0424L87.5777 90.5828L86.1224 90.8721Z" fill="black"/>
</g>
<g opacity="0.3">
<path d="M92.2368 115.142L104.765 111.235C104.839 111.6 104.811 111.978 104.684 112.328C104.557 112.677 104.336 112.986 104.046 113.218C103.456 113.674 102.773 113.995 102.046 114.159C99.0286 115.01 95.3901 115.537 92.2836 115.142" fill="black"/>
</g>
<path d="M75.2411 105.737C74.5339 104.314 73.2911 103.231 71.7856 102.724C72.0241 102.717 72.2612 102.763 72.4793 102.86C73.5737 103.245 74.4796 104.033 75.0113 105.064C75.1351 105.27 75.2134 105.499 75.2411 105.737Z" fill="#263238"/>
<path d="M79.6973 94.1064C79.7296 94.1694 79.7526 94.2368 79.7654 94.3065C79.8079 94.4682 79.859 94.6597 79.9186 94.8937C80.0462 95.4427 80.2207 96.1704 80.4335 97.0683C80.859 98.9024 81.4378 101.443 82.0591 104.247C82.6804 107.052 83.2166 109.571 83.6251 111.443C83.8123 112.341 83.9655 113.082 84.0762 113.631C84.123 113.869 84.1613 114.056 84.1911 114.226C84.2077 114.295 84.2177 114.365 84.2209 114.435C84.1228 114.18 84.0474 113.916 83.9953 113.648C83.8634 113.103 83.6847 112.371 83.4719 111.477C83.0463 109.643 82.4633 107.107 81.842 104.298C81.2207 101.49 80.6675 98.9279 80.276 97.1023C80.093 96.2044 79.9398 95.464 79.8505 94.915C79.8079 94.6767 79.7696 94.4894 79.7398 94.315C79.717 94.2475 79.7027 94.1775 79.6973 94.1064Z" fill="#263238"/>
<path d="M58.3338 100.631C58.2914 100.805 58.3003 100.988 58.3593 101.158C58.3927 101.243 58.4444 101.319 58.5106 101.382C58.5767 101.444 58.6558 101.491 58.7423 101.52C58.8467 101.544 58.9559 101.536 59.0555 101.496C59.1551 101.457 59.2403 101.388 59.2998 101.299C59.3678 101.217 59.4098 101.116 59.4204 101.01C59.4311 100.904 59.4098 100.797 59.3593 100.703C59.3066 100.629 59.2388 100.566 59.1603 100.52C59.0818 100.474 58.9945 100.445 58.904 100.435C58.724 100.425 58.5451 100.468 58.3891 100.558C58.3891 100.558 58.3891 100.49 58.4827 100.418C58.6046 100.325 58.7549 100.276 58.9082 100.282C59.0276 100.282 59.1452 100.31 59.2517 100.364C59.3581 100.418 59.4504 100.496 59.521 100.592C59.5956 100.723 59.6303 100.872 59.6206 101.022C59.611 101.172 59.5575 101.316 59.4668 101.435C59.3761 101.555 59.2522 101.645 59.1105 101.695C58.9688 101.745 58.8156 101.752 58.6699 101.716C58.5575 101.675 58.4564 101.609 58.375 101.521C58.2935 101.434 58.2342 101.329 58.2018 101.214C58.1463 101.067 58.1463 100.905 58.2018 100.758C58.2699 100.66 58.3252 100.631 58.3338 100.631Z" fill="#263238"/>
<path d="M123.294 55.9476C123.294 55.9476 123.328 55.8838 123.452 55.8498C123.537 55.8383 123.624 55.844 123.707 55.8667C123.791 55.8893 123.869 55.9284 123.937 55.9817C124.148 56.134 124.29 56.3634 124.332 56.62C124.344 56.7869 124.3 56.9529 124.207 57.0917C124.114 57.2306 123.977 57.3342 123.818 57.386C123.667 57.4488 123.501 57.467 123.341 57.4383C123.18 57.4096 123.031 57.3353 122.911 57.2243C122.823 57.1254 122.762 57.0045 122.736 56.8743C122.71 56.7442 122.719 56.6093 122.762 56.4838C122.898 56.0583 123.137 55.9306 123.149 55.9476C123.055 56.1318 122.976 56.3241 122.915 56.5221C122.889 56.6193 122.887 56.7217 122.912 56.8194C122.937 56.9171 122.986 57.0067 123.056 57.0796C123.15 57.1576 123.263 57.2084 123.384 57.2264C123.505 57.2444 123.628 57.229 123.741 57.1817C123.855 57.1458 123.955 57.0736 124.025 56.9762C124.095 56.8787 124.131 56.7612 124.128 56.6413C124.099 56.4336 123.997 56.2432 123.839 56.1051C123.737 56.0057 123.602 55.9467 123.46 55.9391C123.358 55.9476 123.303 55.9859 123.294 55.9476Z" fill="#263238"/>
<path d="M63.2061 85.1571C65.9977 81.5952 69.7681 78.7738 74.3215 78.0504C76.6705 77.6716 78.9472 78.0504 81.1771 78.8206C83.5432 79.6249 85.8114 80.5781 88.3094 80.9058C91.1776 81.2846 94.0585 81.0207 96.9182 80.693C97.4715 80.6292 99.5184 80.11 99.5184 79.5058C99.5184 78.9951 97.4757 78.561 96.9182 78.6249C94.3224 78.9227 91.6967 79.1823 89.0839 78.9313C86.5305 78.6844 84.2113 77.6759 81.8154 76.8588C79.4781 75.9967 76.9727 75.6879 74.496 75.9567C72.0179 76.2733 69.6374 77.121 67.5169 78.4419C65.2987 79.8415 63.344 81.6205 61.7422 83.6974C61.558 83.8958 61.4556 84.1565 61.4556 84.4272C61.4556 84.698 61.558 84.9587 61.7422 85.1571C61.9373 85.3494 62.2002 85.4572 62.4742 85.4572C62.7481 85.4572 63.011 85.3494 63.2061 85.1571Z" fill="#455A64"/>
<g opacity="0.3">
<path d="M63.2153 85.1869C66.0069 81.625 69.7772 78.8036 74.3306 78.0802C76.6458 77.7656 79.0028 78.0303 81.1905 78.8505C83.5566 79.6505 85.8248 80.608 88.3185 80.9356C91.1867 81.3144 94.0719 81.0505 96.9274 80.7229C97.4849 80.659 99.519 80.2973 99.519 79.6973C99.519 79.1866 97.4849 78.5909 96.9274 78.6547C94.3315 78.9526 91.7059 79.2122 89.093 78.9568C86.5397 78.7143 84.2247 77.7057 81.8288 76.8887C79.4898 76.0274 76.9836 75.7173 74.5051 75.9822C72.027 76.3011 69.6466 77.1502 67.5261 78.4717C65.3091 79.8714 63.3558 81.6504 61.7556 83.7273C61.5695 83.9247 61.4658 84.1858 61.4658 84.4571C61.4658 84.7284 61.5695 84.9895 61.7556 85.1869C61.95 85.379 62.2122 85.4867 62.4854 85.4867C62.7587 85.4867 63.0209 85.379 63.2153 85.1869Z" fill="black"/>
</g>
<path d="M103.681 60.0371C104.651 59.4882 104.843 58.0115 104.183 57.1051C103.827 56.6725 103.349 56.3568 102.811 56.199C102.273 56.0412 101.7 56.0485 101.166 56.2199C101.281 55.8969 101.288 55.5456 101.186 55.2182C101.085 54.8909 100.881 54.6049 100.604 54.4028C100.04 54.012 99.3627 53.8163 98.6766 53.8454C97.7616 53.8454 96.7148 54.1305 96.3403 54.9646C96.1956 54.4198 95.5786 54.1432 95.0169 54.1135C94.2626 54.0877 93.5253 54.3408 92.9459 54.8244C92.3666 55.308 91.9857 55.9881 91.8763 56.7348C91.3731 56.4478 90.7931 56.3243 90.2166 56.3816C89.9299 56.4175 89.663 56.547 89.4575 56.7502C89.252 56.9534 89.1195 57.2188 89.0804 57.5051C88.8877 57.2962 88.6458 57.1388 88.3768 57.0474C88.1077 56.956 87.82 56.9334 87.5399 56.9817C87.1269 56.9935 86.7273 57.1316 86.3952 57.3774C86.2324 57.5033 86.1117 57.6758 86.0494 57.8719C85.9871 58.0681 85.986 58.2786 86.0462 58.4753C85.6544 58.4086 85.2518 58.4896 84.9163 58.7028C84.5808 58.9159 84.3364 59.246 84.2304 59.6291C84.1245 60.0122 84.1645 60.421 84.3427 60.7763C84.5209 61.1315 84.8247 61.408 85.1951 61.5521C84.9262 61.7734 84.7181 62.0596 84.5904 62.3836C84.4627 62.7076 84.4196 63.0588 84.4652 63.404C84.5107 63.7493 84.6434 64.0773 84.8508 64.3571C85.0582 64.6369 85.3334 64.8593 85.6505 65.0033C85.573 65.0373 85.5042 65.0886 85.4495 65.1532C85.3947 65.2177 85.3554 65.2939 85.3345 65.3759C85.3136 65.458 85.3116 65.5437 85.3288 65.6266C85.3459 65.7095 85.3817 65.7874 85.4334 65.8544C85.6377 66.1353 85.5015 66.1523 85.859 66.1438C85.9271 67.3353 86.0207 68.2502 86.0888 69.4418C86.1356 70.212 86.1186 71.2206 86.3994 71.9355C86.6101 72.3358 86.8979 72.6905 87.2463 72.979C87.5947 73.2675 87.9968 73.4842 88.4293 73.6164L102.621 68.2885C103.092 67.7885 103.411 67.1654 103.542 66.4913C103.674 65.8172 103.611 65.1198 103.362 64.4799C103.316 64.4229 103.285 64.3563 103.269 64.2852C103.253 64.214 103.253 64.1402 103.27 64.0693C103.287 63.9984 103.32 63.9323 103.366 63.8758C103.412 63.8194 103.47 63.7742 103.536 63.7437C103.824 63.5224 104.064 63.2449 104.241 62.9282C104.418 62.6114 104.528 62.2619 104.566 61.901C104.593 61.5403 104.526 61.1787 104.37 60.8519C104.215 60.5251 103.978 60.2443 103.681 60.0371Z" fill="#263238"/>
<path d="M102.404 64.8841C102.085 62.0116 98.8508 59.2796 96.0209 59.7179L86.812 61.9052L86.9184 63.4542L89.2674 84.3062L99.2211 90.2384L98.6381 79.9869C98.6381 79.9869 102.272 79.2039 102.8 74.3611C103.064 71.9738 102.753 68.0587 102.404 64.8841Z" fill="#FFBE9D"/>
<path d="M100.629 69.059C100.637 69.2185 100.583 69.3751 100.479 69.4958C100.374 69.6164 100.226 69.6917 100.067 69.7058C99.9127 69.7213 99.7583 69.6749 99.6379 69.5768C99.5174 69.4787 99.4408 69.3369 99.4247 69.1824C99.4141 69.0219 99.4671 68.8636 99.5722 68.7418C99.6773 68.62 99.826 68.5444 99.9864 68.5313C100.141 68.517 100.296 68.5644 100.416 68.6632C100.536 68.762 100.613 68.9042 100.629 69.059Z" fill="#263238"/>
<path d="M101.65 66.9434C101.578 67.0285 101.093 66.7051 100.433 66.7391C99.7736 66.7732 99.3055 67.1264 99.2331 67.0498C99.1608 66.9732 99.2629 66.8668 99.4672 66.7008C99.7438 66.491 100.078 66.3707 100.425 66.3561C100.77 66.3354 101.112 66.428 101.399 66.62C101.608 66.7647 101.684 66.9093 101.65 66.9434Z" fill="#263238"/>
<path d="M94.8508 69.2417C94.8613 69.4011 94.8088 69.5583 94.7045 69.6793C94.6002 69.8003 94.4525 69.8755 94.2933 69.8885C94.2154 69.8986 94.1363 69.893 94.0607 69.8719C93.9851 69.8509 93.9144 69.8149 93.8529 69.7661C93.7914 69.7174 93.7403 69.6567 93.7027 69.5878C93.665 69.519 93.6416 69.4432 93.6337 69.3651C93.623 69.2053 93.6754 69.0476 93.7796 68.9259C93.8838 68.8042 94.0316 68.7281 94.1911 68.714C94.2693 68.704 94.3487 68.7098 94.4246 68.731C94.5005 68.7523 94.5714 68.7887 94.6329 68.8379C94.6945 68.8872 94.7455 68.9483 94.7829 69.0177C94.8203 69.087 94.8434 69.1632 94.8508 69.2417Z" fill="#263238"/>
<path d="M95.191 67.5183C95.1187 67.6035 94.6378 67.28 93.9782 67.3141C93.3186 67.3481 92.8505 67.7013 92.7739 67.6205C92.6973 67.5396 92.8079 67.4417 93.0122 67.2758C93.2854 67.0642 93.6174 66.9424 93.9626 66.9272C94.3078 66.9119 94.6492 67.004 94.9399 67.1907C95.1697 67.3396 95.2251 67.48 95.191 67.5183Z" fill="#263238"/>
<path d="M97.7993 72.1823C98.1417 72.054 98.4993 71.9711 98.8632 71.9355C99.0291 71.91 99.1866 71.8674 99.2121 71.7525C99.217 71.5767 99.1696 71.4035 99.076 71.2546L98.5142 69.978C97.7312 68.1736 97.1567 66.6884 97.2376 66.6587C97.3184 66.6289 98.0036 68.063 98.7866 69.8673C98.9738 70.2929 99.1526 70.7184 99.327 71.144C99.4414 71.3436 99.4835 71.5765 99.4462 71.8036C99.4247 71.8651 99.3894 71.921 99.3429 71.9667C99.2964 72.0125 99.24 72.0469 99.1781 72.0674C99.0871 72.0966 98.9927 72.1138 98.8972 72.1185C98.5351 72.1836 98.1665 72.205 97.7993 72.1823Z" fill="#263238"/>
<path d="M98.6386 80.0039C96.3861 80.1455 94.1387 79.6563 92.1489 78.5911C92.1489 78.5911 94.1065 82.1614 98.8726 81.4848L98.6386 80.0039Z" fill="#EB996E"/>
<path d="M97.5998 73.7909C97.4662 73.6387 97.2961 73.523 97.1056 73.4545C96.9151 73.386 96.7102 73.367 96.5104 73.3994C96.3665 73.4172 96.2279 73.4641 96.1028 73.5373C95.9777 73.6105 95.8688 73.7083 95.7827 73.8249C95.702 73.9411 95.6587 74.0792 95.6587 74.2207C95.6587 74.3622 95.702 74.5002 95.7827 74.6164C95.8937 74.7312 96.0369 74.8096 96.1933 74.8415C96.3498 74.8734 96.5122 74.8573 96.6593 74.7952C96.9669 74.6705 97.2462 74.4853 97.4806 74.2505C97.5522 74.1939 97.6128 74.1247 97.6594 74.0462C97.6824 74.0091 97.6945 73.9664 97.6945 73.9228C97.6945 73.8792 97.6824 73.8364 97.6594 73.7994" fill="#EB996E"/>
<path d="M95.8801 72.7312C95.9865 72.7312 96.0248 73.4376 96.6632 73.9227C97.3015 74.4079 98.059 74.2887 98.0675 74.3866C98.076 74.4845 97.9058 74.5355 97.5823 74.5611C97.1633 74.5865 96.7488 74.4629 96.4121 74.2121C96.0876 73.9692 95.8684 73.6114 95.7993 73.2121C95.761 72.9099 95.8291 72.7312 95.8801 72.7312Z" fill="#263238"/>
<path d="M95.2766 65.1394C95.217 65.3224 94.5574 65.2714 93.7871 65.399C93.0169 65.5267 92.3998 65.7735 92.2892 65.6161C92.2381 65.5395 92.3403 65.365 92.5828 65.1905C92.9103 64.9621 93.2853 64.811 93.6797 64.7483C94.074 64.6857 94.4774 64.7132 94.8595 64.8288C95.1702 64.9182 95.2978 65.0543 95.2766 65.1394Z" fill="#263238"/>
<path d="M101.314 65.0374C101.204 65.1948 100.74 65.0374 100.195 65.08C99.6505 65.1225 99.1909 65.2289 99.076 65.08C99.0249 65.0034 99.076 64.8502 99.2845 64.697C99.5478 64.5122 99.8608 64.4113 100.182 64.4076C100.504 64.3987 100.821 64.4893 101.089 64.6672C101.289 64.8119 101.361 64.9608 101.314 65.0374Z" fill="#263238"/>
<path d="M100.157 59.4241L99.8592 59.3007C100.323 58.2623 99.5401 56.9304 98.4336 56.6708C97.8722 56.5743 97.2946 56.6617 96.787 56.9202C96.2793 57.1786 95.8687 57.5941 95.6165 58.1049C95.3614 57.6593 94.9633 57.313 94.4867 57.1222C94.01 56.9314 93.4829 56.9073 92.9908 57.0538C92.1865 57.3219 91.612 58.0113 91.0588 58.6581C90.9354 58.8028 90.778 58.9602 90.5865 58.939C90.4501 58.9029 90.3283 58.8256 90.2375 58.7177C89.7583 58.3224 89.1712 58.0806 88.5526 58.0237C87.934 57.9668 87.3126 58.0974 86.7693 58.3985C86.2341 58.7127 85.7674 59.131 85.3968 59.6288C85.0262 60.1266 84.7592 60.6937 84.6117 61.2965C84.4574 61.7838 84.431 62.3026 84.5351 62.803C84.5892 63.051 84.7078 63.2804 84.8789 63.4679C85.05 63.6555 85.2676 63.7945 85.5096 63.8711C85.2936 64.1745 85.1502 64.5236 85.0905 64.8912C85.0308 65.2589 85.0564 65.6354 85.1654 65.9916C85.2744 66.3478 85.4638 66.6742 85.7191 66.9455C85.9743 67.2168 86.2885 67.4258 86.6374 67.5564C86.6885 67.7186 86.7585 67.8743 86.8459 68.0202C86.7651 68.8944 86.7353 69.7725 86.7565 70.6501C86.7437 71.0293 86.8225 71.4059 86.9863 71.748C87.0736 71.9154 87.2116 72.0508 87.3805 72.1349C87.5494 72.219 87.7407 72.2474 87.9268 72.2161C88.3225 72.1055 88.8758 71.9012 88.9949 71.5055C89.2034 70.7991 88.9736 69.8246 89.029 69.0884C89.4388 69.0273 89.8226 68.8498 90.1344 68.5769C90.4462 68.3039 90.6731 67.9471 90.7879 67.5489C90.9026 67.1508 90.9006 66.728 90.7819 66.3309C90.6632 65.9339 90.4329 65.5793 90.1184 65.3095C90.4619 65.4527 90.8346 65.5123 91.2056 65.4833C91.5767 65.4543 91.9356 65.3376 92.2527 65.1426C92.5698 64.9477 92.836 64.6802 93.0295 64.3623C93.2229 64.0443 93.338 63.6848 93.3653 63.3136C93.7047 63.6307 94.1085 63.8709 94.5491 64.0178C94.9897 64.1647 95.4569 64.2148 95.9186 64.1647C96.3627 64.1405 96.7797 63.9435 97.0804 63.6158C97.2229 63.4464 97.2982 63.2305 97.2919 63.0093C97.2857 62.788 97.1982 62.5767 97.0463 62.4157C97.4699 62.605 97.9398 62.6656 98.3976 62.59C98.8554 62.5143 99.2808 62.3057 99.6209 61.9902C99.9495 61.6605 100.175 61.2424 100.27 60.7868C100.365 60.3312 100.326 59.8577 100.157 59.4241Z" fill="#263238"/>
<path d="M88.1518 69.8415C88.0794 69.8117 85.2963 69.084 85.475 71.9054C85.6538 74.7268 88.4326 73.9736 88.4326 73.8928C88.4326 73.8119 88.1518 69.8415 88.1518 69.8415Z" fill="#FFBE9D"/>
<path d="M87.5102 72.876C87.5102 72.876 87.4634 72.9143 87.3826 72.9568C87.2692 73.0143 87.1378 73.025 87.0166 72.9866C86.8279 72.8807 86.6705 72.727 86.5599 72.5411C86.4494 72.3551 86.3897 72.1433 86.3868 71.927C86.3664 71.6861 86.3983 71.4437 86.4804 71.2163C86.5017 71.1269 86.5441 71.044 86.6041 70.9744C86.664 70.9047 86.7398 70.8506 86.8251 70.8163C86.8808 70.7974 86.9414 70.799 86.996 70.8209C87.0507 70.8427 87.0957 70.8834 87.123 70.9355C87.1655 71.0121 87.1528 71.0674 87.1655 71.0716C87.1783 71.0759 87.2251 71.0206 87.1953 70.9057C87.1746 70.8366 87.1311 70.7766 87.0719 70.7354C87.0324 70.7087 86.988 70.6901 86.9413 70.6806C86.8945 70.6711 86.8464 70.6709 86.7996 70.6801C86.6852 70.7097 86.5804 70.7684 86.4954 70.8504C86.4104 70.9324 86.3481 71.035 86.3144 71.1482C86.2088 71.3994 86.1679 71.673 86.1953 71.944C86.1954 72.1963 86.2702 72.4429 86.4103 72.6527C86.5504 72.8625 86.7495 73.0261 86.9825 73.1228C87.0567 73.1364 87.1328 73.1343 87.2061 73.1167C87.2794 73.0991 87.3482 73.0664 87.4081 73.0206C87.5102 72.944 87.5102 72.8802 87.5102 72.876Z" fill="#EB996E"/>
<path d="M93.2246 62.8369C93.2501 62.8396 93.2758 62.8396 93.3012 62.8369L93.5268 62.8624C93.8111 62.884 94.0971 62.8697 94.3779 62.8199C94.5821 62.7804 94.7807 62.7161 94.9694 62.6284C95.1931 62.5277 95.3943 62.383 95.5609 62.2028C95.7491 61.9885 95.8821 61.7314 95.9481 61.4539C96.0223 61.1404 95.9799 60.8107 95.829 60.5262L95.7524 60.5985C96.3406 60.9745 97.0351 61.1492 97.7312 61.0964C98.1111 61.073 98.4834 60.9792 98.8291 60.8198C99.0105 60.7354 99.1794 60.6266 99.3313 60.4964C99.4859 60.3548 99.5991 60.1739 99.6589 59.973C99.7191 59.7406 99.7264 59.4978 99.6802 59.2623C99.643 59.0355 99.5875 58.812 99.5142 58.5942C99.4472 58.3793 99.3513 58.1746 99.2291 57.9856C99.1686 57.8883 99.0872 57.8058 98.9908 57.7439C98.8943 57.6821 98.7853 57.6425 98.6717 57.6282V57.7431C99.0891 57.8496 99.5305 57.8106 99.9228 57.6324C100.283 57.4788 100.593 57.2266 100.816 56.9047C101.01 56.6224 101.118 56.2897 101.127 55.9472C101.129 55.5895 101.038 55.2374 100.862 54.926C100.685 54.6147 100.431 54.3549 100.123 54.1727C99.9912 54.0949 99.8473 54.0402 99.6972 54.011C99.831 54.0695 99.9617 54.1349 100.089 54.2067C100.433 54.4247 100.703 54.7423 100.863 55.1174C100.977 55.379 101.032 55.6622 101.025 55.9472C101.018 56.2775 100.911 56.5979 100.719 56.8664C100.505 57.1689 100.21 57.4049 99.8675 57.5473C99.4969 57.7121 99.0814 57.7466 98.6887 57.6452L98.6674 57.7643C98.7638 57.7776 98.8559 57.8124 98.9369 57.8662C99.018 57.92 99.0859 57.9914 99.1355 58.075C99.2521 58.252 99.3411 58.4457 99.3994 58.6495C99.5693 59.0627 99.6195 59.5155 99.544 59.9559C99.4808 60.1315 99.3798 60.2911 99.2482 60.4235C99.1166 60.5558 98.9575 60.6577 98.7823 60.7219C98.4497 60.8754 98.0922 60.9677 97.7269 60.9943C97.0563 61.0472 96.3864 60.8831 95.8162 60.5262L95.6332 60.407L95.7396 60.5985C95.8816 60.8583 95.9225 61.1614 95.8545 61.4496C95.795 61.7125 95.674 61.9576 95.5013 62.1645C95.3447 62.3429 95.1536 62.4876 94.9396 62.5901C94.7585 62.6792 94.5669 62.745 94.3693 62.7858C94.0895 62.8438 93.8038 62.8681 93.5182 62.8582C93.4209 62.8451 93.3228 62.8379 93.2246 62.8369Z" fill="white"/>
<path d="M100.702 61.4031C100.702 61.4031 100.757 61.4414 100.868 61.4712C101.071 61.523 101.283 61.5257 101.487 61.4791C101.692 61.4324 101.882 61.3378 102.042 61.2031C102.103 61.1495 102.152 61.0842 102.188 61.0111C102.223 60.938 102.243 60.8586 102.246 60.7776C102.25 60.691 102.229 60.6051 102.187 60.5298C102.144 60.4545 102.08 60.3928 102.004 60.352L101.961 60.4712H102.004C102.279 60.5343 102.564 60.5361 102.84 60.4765C103.116 60.4169 103.375 60.2974 103.6 60.1265C103.735 60.0241 103.854 59.9022 103.953 59.7647C103.993 59.7169 104.023 59.6621 104.042 59.603C103.891 59.767 103.726 59.9179 103.549 60.0541C103.33 60.2055 103.083 60.3101 102.822 60.3614C102.562 60.4126 102.293 60.4094 102.034 60.352H101.995L101.404 60.2201L101.953 60.4669C102.009 60.4989 102.056 60.5462 102.087 60.6034C102.118 60.6606 102.132 60.7254 102.127 60.7903C102.117 60.9187 102.06 61.0386 101.966 61.1265C101.793 61.2826 101.578 61.386 101.348 61.4244C101.133 61.4489 100.915 61.4417 100.702 61.4031Z" fill="white"/>
<path d="M123.575 53.8922L123.886 52.1304C123.886 52.1304 122.856 48.3005 122.962 47.7473C123.069 47.194 123.184 44.5684 123.184 44.5684L125.831 41.5895C126.017 41.5825 126.201 41.6309 126.361 41.7286C126.52 41.8263 126.646 41.9689 126.724 42.1385C126.724 42.1385 127.933 42.0406 128.205 42.8577C128.309 42.8019 128.425 42.7735 128.543 42.7753C128.661 42.777 128.777 42.8087 128.879 42.8675C128.981 42.9263 129.067 43.0101 129.128 43.1112C129.188 43.2122 129.222 43.3271 129.226 43.4449C129.281 43.6965 129.305 43.9536 129.299 44.2109C129.473 44.2492 130.478 44.4875 130.486 44.9854C130.455 45.7512 130.312 46.5083 130.06 47.2323C130.008 47.361 129.924 47.4749 129.818 47.5639C129.711 47.6529 129.584 47.7144 129.448 47.743L129.15 49.1005C129.15 49.1005 128.89 51.3304 128.392 52.3687L128.014 52.9858L127.899 55.7646L123.575 53.8922Z" fill="#FFBE9D"/>
<path d="M127.512 44.002C127.368 43.2907 127.078 42.617 126.661 42.0232L125.648 42.67C125.766 43.0144 125.908 43.3501 126.073 43.6743C126.144 43.8658 126.257 44.0386 126.405 44.1795C126.552 44.3204 126.73 44.4256 126.925 44.4871C127.15 44.5425 127.44 44.4871 127.512 44.2658C127.533 44.1792 127.533 44.0887 127.512 44.002Z" fill="#FFBE9D"/>
<path d="M125.651 42.6703C125.656 42.7418 125.672 42.8121 125.698 42.8788C125.758 43.0623 125.831 43.2414 125.915 43.415C125.966 43.5299 126.017 43.6533 126.077 43.7853C126.142 43.9266 126.228 44.0572 126.332 44.1725C126.451 44.3038 126.596 44.4083 126.758 44.4789C126.847 44.5169 126.944 44.5365 127.041 44.5365C127.138 44.5365 127.234 44.5169 127.324 44.4789C127.372 44.4591 127.415 44.4296 127.451 44.3923C127.487 44.3549 127.514 44.3105 127.532 44.2619C127.556 44.1683 127.556 44.0704 127.532 43.9768C127.505 43.8066 127.465 43.6388 127.413 43.4746C127.328 43.2001 127.218 42.9337 127.085 42.6788C126.971 42.4575 126.864 42.2916 126.792 42.1767C126.754 42.115 126.712 42.0566 126.664 42.0022C126.692 42.0684 126.725 42.1324 126.762 42.1937C126.83 42.3128 126.924 42.4831 127.03 42.7044C127.156 42.9603 127.26 43.2265 127.341 43.5001C127.386 43.6613 127.423 43.8246 127.451 43.9895C127.471 44.0692 127.471 44.1524 127.451 44.2321C127.438 44.2702 127.416 44.305 127.389 44.3343C127.361 44.3636 127.327 44.3868 127.29 44.4023C127.211 44.4359 127.126 44.4532 127.041 44.4532C126.955 44.4532 126.871 44.4359 126.792 44.4023C126.641 44.3389 126.506 44.243 126.396 44.1214C126.294 44.0107 126.208 43.886 126.141 43.7512C126.081 43.6278 126.03 43.5001 125.975 43.3895C125.885 43.2195 125.804 43.0448 125.732 42.8661C125.711 42.7988 125.684 42.7333 125.651 42.6703Z" fill="#EB996E"/>
<path d="M127.265 44.4576C127.265 44.4576 127.265 44.4576 127.265 44.5172C127.26 44.5753 127.26 44.6336 127.265 44.6917C127.279 44.9048 127.336 45.113 127.43 45.3044C127.576 45.5877 127.787 45.8316 128.048 46.0151C128.126 46.0727 128.216 46.1131 128.311 46.1337C128.407 46.1542 128.505 46.1544 128.601 46.1343C128.706 46.1145 128.8 46.0589 128.869 45.9768C128.937 45.8891 128.974 45.7815 128.975 45.6704C128.964 45.4703 128.931 45.272 128.877 45.0789C128.831 44.8917 128.779 44.7129 128.728 44.5427L128.452 43.6491C128.375 43.398 128.316 43.1895 128.282 43.049C128.267 42.9716 128.244 42.896 128.213 42.8235C128.217 42.9011 128.228 42.9781 128.248 43.0533C128.277 43.2022 128.324 43.4107 128.396 43.6661C128.469 43.9214 128.558 44.2321 128.656 44.564C128.703 44.7342 128.75 44.9129 128.796 45.0959C128.847 45.2824 128.878 45.4734 128.89 45.6662C128.892 45.7585 128.862 45.8488 128.805 45.9215C128.747 45.9888 128.67 46.0365 128.584 46.0577C128.498 46.0737 128.411 46.0726 128.326 46.0543C128.241 46.036 128.161 46.001 128.09 45.9513C127.839 45.7876 127.629 45.5676 127.477 45.3087C127.379 45.1264 127.315 44.9272 127.29 44.7214C127.269 44.5597 127.273 44.4576 127.265 44.4576Z" fill="#EB996E"/>
<path d="M127.911 45.9085C127.911 45.9085 127.911 45.9085 127.886 45.9766C127.86 46.0447 127.86 46.0873 127.843 46.1766C127.804 46.4262 127.804 46.6803 127.843 46.9299C127.893 47.3082 128.068 47.6589 128.341 47.9256C128.508 48.0872 128.73 48.1786 128.962 48.181C129.025 48.1799 129.088 48.1661 129.145 48.1406C129.203 48.115 129.255 48.0781 129.298 48.032C129.381 47.9331 129.432 47.8114 129.443 47.6831C129.476 47.2269 129.476 46.769 129.443 46.3128C129.409 45.8873 129.379 45.5255 129.354 45.2064C129.328 44.8872 129.32 44.6361 129.311 44.4617C129.317 44.3695 129.317 44.2772 129.311 44.1851C129.311 44.1851 129.311 44.2106 129.311 44.2574C129.311 44.3042 129.311 44.3723 129.311 44.4617C129.311 44.6361 129.311 44.8872 129.311 45.2106C129.311 45.5341 129.358 45.9043 129.384 46.3213C129.414 46.7705 129.414 47.2212 129.384 47.6703C129.374 47.7812 129.331 47.8864 129.26 47.9725C129.225 48.0117 129.183 48.0434 129.135 48.0653C129.088 48.0873 129.036 48.0992 128.984 48.1001C128.772 48.095 128.571 48.0116 128.418 47.8661C128.153 47.6131 127.981 47.2791 127.928 46.9171C127.864 46.5845 127.858 46.2431 127.911 45.9085Z" fill="#EB996E"/>
<path d="M101.08 44.509L101.123 44.4026L101.187 44.4962C101.237 44.569 101.308 44.6253 101.391 44.6579L101.493 44.7005L101.404 44.7643C101.328 44.8131 101.27 44.8847 101.238 44.9686L101.195 45.0707L101.135 44.9771C101.084 44.9053 101.013 44.8493 100.931 44.8154L100.829 44.7728L100.918 44.709C100.99 44.6589 101.046 44.5896 101.08 44.509Z" fill="#E0E0E0"/>
<path d="M129.423 32.755L129.495 32.5806L129.606 32.7338C129.692 32.8595 129.813 32.9572 129.955 33.0146L130.129 33.087L129.976 33.1976C129.849 33.2828 129.751 33.4045 129.695 33.5466L129.623 33.721L129.512 33.5678C129.426 33.4421 129.304 33.3444 129.163 33.287L128.984 33.2146L129.142 33.104C129.266 33.0165 129.364 32.8955 129.423 32.755Z" fill="#E0E0E0"/>
<path d="M128.175 26.4015L128.294 26.1079L128.481 26.3675C128.626 26.5792 128.831 26.7435 129.068 26.8399L129.362 26.959L129.103 27.1463C128.892 27.2925 128.728 27.4964 128.63 27.7335L128.511 28.0271L128.328 27.7676C128.18 27.5565 127.975 27.3926 127.737 27.2952L127.443 27.176L127.702 26.9931C127.913 26.8454 128.077 26.64 128.175 26.4015Z" fill="#E0E0E0"/>
<path d="M113.821 52.8196L113.715 52.5174L114.026 52.594C114.275 52.6531 114.536 52.6413 114.779 52.56L115.081 52.4536L115.009 52.7643C114.945 53.0132 114.957 53.2753 115.043 53.5175L115.145 53.8196L114.834 53.743C114.585 53.6839 114.324 53.6957 114.081 53.7771L113.779 53.8835L113.855 53.5728C113.914 53.3235 113.903 53.0626 113.821 52.8196Z" fill="#E0E0E0"/>
<path d="M108.656 41.9044C108.115 42.5555 107.558 43.1811 107.035 43.8534C106.802 44.1337 106.634 44.4614 106.541 44.8134C106.449 45.1655 106.434 45.5335 106.498 45.8918C106.58 46.2558 106.735 46.5992 106.955 46.9008C107.174 47.2024 107.454 47.4557 107.775 47.6451C109.762 49.0068 112.196 50.1558 114.665 49.8537C116.342 49.6162 117.865 48.7452 118.92 47.4195C119.006 47.3108 119.047 47.1725 119.033 47.0344C119.018 46.8963 118.951 46.7692 118.844 46.6803C118.737 46.5914 118.6 46.5477 118.462 46.5586C118.323 46.5695 118.195 46.6341 118.103 46.7387C117.311 47.7452 116.198 48.4496 114.95 48.7345C113.873 48.9216 112.766 48.8323 111.733 48.4749C110.743 48.1472 109.799 47.6938 108.924 47.1259C108.46 46.8962 108.051 46.5697 107.724 46.1684C107.573 45.9166 107.504 45.6238 107.527 45.331C107.549 45.0381 107.663 44.7596 107.852 44.5343C108.375 43.8705 108.937 43.2577 109.477 42.5853C109.567 42.4764 109.611 42.3361 109.598 42.1952C109.584 42.0543 109.516 41.9245 109.407 41.8342C109.298 41.7439 109.158 41.7006 109.017 41.7137C108.876 41.7269 108.746 41.7955 108.656 41.9044Z" fill="#FF725E"/>
<path d="M119.72 30.1635C120.231 29.5507 120.737 28.9379 121.248 28.3294C121.38 28.143 121.553 27.9891 121.754 27.8792C121.954 27.7694 122.177 27.7065 122.405 27.6953C123.035 27.6953 123.431 28.1208 123.835 28.5464C125.265 30.0188 126.593 31.9083 126.737 34.019C126.8 35.437 126.316 36.8249 125.384 37.8957C125.298 38.0045 125.257 38.1428 125.272 38.2809C125.286 38.419 125.354 38.5461 125.46 38.635C125.567 38.7239 125.704 38.7676 125.843 38.7567C125.981 38.7458 126.11 38.6811 126.201 38.5766C127.192 37.4338 127.768 35.9897 127.835 34.4786C127.832 33.1688 127.487 31.8824 126.835 30.7465C126.245 29.6902 125.513 28.7195 124.661 27.8613C124.238 27.3231 123.667 26.9206 123.018 26.7038C122.635 26.6083 122.234 26.6069 121.851 26.6995C121.467 26.7921 121.111 26.9761 120.814 27.2357C120.121 27.9328 119.483 28.6811 118.903 29.4741C118.858 29.5277 118.824 29.5897 118.803 29.6565C118.782 29.7233 118.774 29.7936 118.78 29.8633C118.786 29.9331 118.806 30.0009 118.839 30.063C118.871 30.1251 118.915 30.1802 118.969 30.2252C119.023 30.2702 119.085 30.3042 119.151 30.3252C119.218 30.3462 119.288 30.3539 119.358 30.3478C119.428 30.3416 119.496 30.3218 119.558 30.2895C119.62 30.2571 119.675 30.2129 119.72 30.1592V30.1635Z" fill="#FF725E"/>
<path d="M127.359 45.1343L126.24 45.9854V46.0194H126.21L125.58 47.2961C125.58 47.2961 127.542 49.1728 128.376 51.2111L130.036 49.2238L130.078 49.1685L131.738 47.1812C129.559 46.7301 127.359 45.1343 127.359 45.1343Z" fill="#FF725E"/>
<path d="M127.84 44.8834L125.405 47.8027C125.331 47.8929 125.239 47.9674 125.135 48.022C125.032 48.0766 124.918 48.1103 124.802 48.1209C124.685 48.1316 124.567 48.1191 124.456 48.0842C124.344 48.0493 124.24 47.9927 124.15 47.9176C124.057 47.8426 123.979 47.7497 123.923 47.6442C123.866 47.5387 123.832 47.4229 123.821 47.3037C123.81 47.1845 123.824 47.0643 123.86 46.9505C123.897 46.8366 123.957 46.7313 124.035 46.6409L126.469 43.7216C126.544 43.6314 126.636 43.5569 126.739 43.5023C126.843 43.4476 126.956 43.414 127.073 43.4034C127.19 43.3927 127.307 43.4052 127.419 43.4401C127.531 43.475 127.635 43.5316 127.725 43.6067C127.818 43.6817 127.895 43.7746 127.952 43.8801C128.008 43.9856 128.043 44.1014 128.054 44.2206C128.064 44.3398 128.051 44.46 128.014 44.5738C127.977 44.6877 127.918 44.793 127.84 44.8834Z" fill="#FF725E"/>
<path d="M117.724 27.2188L111.979 34.1212L111.673 34.4872L106.234 41.0023C106.332 41.164 119.333 53.1476 125.439 45.343C132.036 37.9086 117.907 27.2911 117.724 27.2188Z" fill="#FF725E"/>
<path d="M117.724 27.2188C117.773 27.2409 117.819 27.2696 117.86 27.3039C117.95 27.3634 118.077 27.4528 118.239 27.5805C118.571 27.8273 119.048 28.206 119.643 28.7209C121.328 30.1655 122.863 31.775 124.227 33.5254C125.174 34.7374 125.959 36.0679 126.563 37.483C127.304 39.1142 127.475 40.9474 127.048 42.6875C126.783 43.6165 126.318 44.4763 125.686 45.2068C125.087 46.0136 124.335 46.6946 123.473 47.2111C122.56 47.7231 121.54 48.0146 120.494 48.0622C119.426 48.1104 118.357 47.9941 117.324 47.7175C115.131 47.0937 113.045 46.138 111.141 44.8834C110.217 44.2961 109.341 43.6791 108.507 43.045C108.081 42.7258 107.69 42.4024 107.302 42.079L106.724 41.5853C106.532 41.4109 106.362 41.2747 106.158 41.0619L106.111 41.0108L106.166 40.9428C109.571 36.8787 112.46 33.4403 114.498 31.0062L116.873 28.1975L117.503 27.4613L117.669 27.2783C117.685 27.2567 117.704 27.2368 117.724 27.2188C117.71 27.2448 117.693 27.2691 117.673 27.2911L117.511 27.4911L116.894 28.2571L114.562 31.104L106.324 41.0534L106.256 40.9853L106.332 40.9385L106.358 40.964L106.426 41.0236L106.562 41.1513L106.839 41.3938L107.43 41.9045C107.822 42.2279 108.222 42.5428 108.634 42.8577C109.464 43.4876 110.337 44.1003 111.256 44.6834C113.144 45.9268 115.21 46.8753 117.384 47.4962C118.394 47.7667 119.441 47.8815 120.486 47.8367C121.497 47.7877 122.483 47.5051 123.367 47.0111C124.206 46.507 124.941 45.8451 125.529 45.0621C126.143 44.354 126.597 43.5204 126.856 42.6194C127.275 40.922 127.113 39.1332 126.397 37.5384C125.805 36.1404 125.036 34.8245 124.107 33.6233C122.758 31.8705 121.245 30.2503 119.588 28.7848C119.001 28.2869 118.537 27.8613 118.218 27.6145L117.852 27.3209L117.724 27.2188Z" fill="#263238"/>
<g opacity="0.3">
<path d="M117.724 27.2188C118.575 27.9167 119.379 28.5422 120.132 29.2273C125.218 33.8446 128.494 39.0703 126.66 43.5046L125.256 45.6323C125.256 45.6323 126.737 40.1938 123.979 36.2702C121.222 32.3466 117.426 27.8826 117.426 27.8826L117.724 27.2188Z" fill="black"/>
</g>
<path d="M135.23 46.0831L128.06 54.6707C127.78 54.438 127.55 54.1526 127.381 53.8308C127.212 53.5089 127.108 53.1569 127.075 52.7949C127.042 52.4328 127.081 52.0679 127.19 51.7209C127.298 51.3739 127.474 51.0517 127.707 50.7726L131.341 46.4363C131.573 46.157 131.859 45.9262 132.181 45.7573C132.503 45.5884 132.855 45.4845 133.217 45.4517C133.579 45.4189 133.944 45.4578 134.291 45.5661C134.638 45.6745 134.96 45.8501 135.239 46.0831H135.23Z" fill="#FF725E"/>
<path d="M136.3 44.5814L126.676 56.1323L132.234 60.7631L141.858 49.2122L136.3 44.5814Z" fill="#263238"/>
<path d="M136.304 47.5011L129.497 55.6714L132.22 57.9405L139.027 49.7701L136.304 47.5011Z" fill="#455A64"/>
<path d="M115.516 36.866L118.197 37.5128L120.252 35.6702L120.465 38.4192L122.857 39.8023L120.303 40.8576L119.729 43.5599L117.937 41.4577L115.192 41.7428L116.635 39.3895L115.516 36.866Z" fill="white"/>
<path d="M122.515 46.6363L122.481 46.6661L122.384 46.7427C122.249 46.8377 122.107 46.9203 121.958 46.9895C121.729 47.0982 121.487 47.1782 121.239 47.2278C120.911 47.295 120.577 47.325 120.243 47.3172C119.837 47.3113 119.433 47.27 119.034 47.1937L118.366 47.0661C118.141 47.015 117.911 46.9512 117.673 46.8959C116.649 46.6118 115.652 46.2387 114.694 45.7809C113.732 45.3254 112.798 44.8124 111.898 44.2447C111.047 43.7255 110.332 43.2234 109.723 42.8021C109.115 42.3808 108.63 42.019 108.298 41.7722L107.936 41.4786L107.834 41.4063L107.804 41.3765L107.838 41.402L107.936 41.4786L108.323 41.7552C108.664 41.9978 109.153 42.3467 109.762 42.768C110.37 43.1893 111.102 43.6872 111.936 44.2021C112.832 44.7669 113.76 45.2784 114.715 45.7341C115.674 46.1893 116.671 46.561 117.694 46.8448C117.932 46.9044 118.162 46.9682 118.388 47.0193L119.052 47.1512C119.449 47.2251 119.852 47.2664 120.256 47.2746C120.588 47.2851 120.921 47.258 121.247 47.1937C121.494 47.146 121.734 47.0689 121.962 46.9639C122.111 46.8972 122.253 46.8175 122.388 46.7256L122.49 46.6533L122.515 46.6363Z" fill="white"/>
<path d="M124.285 46.9385C124.261 46.9985 124.245 47.0615 124.238 47.1257C124.234 47.2052 124.247 47.2847 124.277 47.3583C124.307 47.432 124.354 47.4979 124.413 47.5513C124.531 47.652 124.669 47.7273 124.817 47.7726C124.928 47.8109 125 47.8321 125 47.8364C124.933 47.836 124.867 47.8245 124.804 47.8023C124.648 47.7642 124.502 47.6899 124.379 47.5853C124.322 47.5305 124.276 47.4644 124.246 47.3911C124.216 47.3178 124.202 47.239 124.204 47.1598C124.211 47.1104 124.227 47.0627 124.251 47.0193L124.285 46.9385Z" fill="white"/>
<path d="M128.128 50.7471C128.128 50.7471 128.098 50.7854 128.047 50.8577C127.97 50.956 127.901 51.0598 127.839 51.1684C127.63 51.5261 127.503 51.9259 127.469 52.3386C127.439 52.7521 127.498 53.1672 127.643 53.5557C127.689 53.6723 127.741 53.786 127.8 53.8961C127.825 53.9351 127.845 53.9765 127.86 54.0195L127.839 53.994L127.783 53.9046C127.72 53.7963 127.663 53.684 127.613 53.5685C127.456 53.1787 127.39 52.7578 127.422 52.3386C127.468 51.7904 127.68 51.2694 128.03 50.8449L128.103 50.7683C128.103 50.7683 128.128 50.7428 128.128 50.7471Z" fill="white"/>
<path d="M125.784 47.8068C126.279 47.3231 126.67 46.744 126.933 46.1046C127.062 45.7865 127.095 45.4376 127.027 45.1011C126.96 44.7646 126.796 44.4551 126.555 44.2109L123.576 47.6153L126.912 51.9687C127.878 50.3091 127.086 48.3388 125.784 47.8068Z" fill="#FFBE9D"/>
<path d="M127.512 51.2664C127.512 51.2664 127.512 51.2409 127.512 51.1898C127.512 51.1387 127.546 51.0664 127.559 50.9643C127.606 50.6754 127.606 50.3808 127.559 50.0919C127.486 49.6487 127.319 49.2263 127.069 48.8535C126.756 48.3771 126.313 48.0005 125.793 47.7684V47.8322C126.037 47.57 126.268 47.2944 126.482 47.0066C126.716 46.698 126.892 46.3489 127.001 45.9768C127.08 45.6538 127.08 45.3168 127.001 44.9938C126.935 44.6847 126.773 44.4046 126.537 44.1937L126.507 44.1682L126.482 44.198L124.354 46.6662L123.746 47.3811L123.584 47.5769C123.546 47.6237 123.529 47.645 123.533 47.6492L123.592 47.5854L123.763 47.4024L124.392 46.696L126.542 44.2533H126.486C126.703 44.4554 126.852 44.7202 126.912 45.0108C126.98 45.3217 126.971 45.6445 126.886 45.9513C126.782 46.3142 126.612 46.6548 126.384 46.9556C126.173 47.2409 125.947 47.5151 125.707 47.7769L125.669 47.8152H125.72C126.237 48.0364 126.68 48.4012 126.997 48.8663C127.245 49.2304 127.414 49.6419 127.495 50.0749C127.546 50.3555 127.557 50.6423 127.525 50.926C127.546 51.16 127.512 51.2664 127.512 51.2664Z" fill="#EB996E"/>
<path d="M127.669 51.0235C128.882 49.4277 130.375 47.768 131.588 46.168L127.669 51.0235Z" fill="#FF725E"/>
<path d="M131.588 46.1599C131.044 47.0505 130.415 47.887 129.712 48.6579C129.188 49.2835 128.712 49.8452 128.29 50.3601C128.11 50.6076 127.901 50.8332 127.669 51.0325C128.212 50.1421 128.839 49.3056 129.541 48.5345L130.967 46.8323C131.15 46.5872 131.358 46.3619 131.588 46.1599Z" fill="#263238"/>
<path d="M77.1137 162.135L76.5818 162.003C76.5818 162.003 70.6964 170.161 68.9517 169.833L73.5051 151.862L79.4202 153.624C77.5052 155.982 76.6584 158.743 77.1137 162.135Z" fill="#455A64"/>
<path d="M77.0495 154.956C77.0404 154.77 76.9628 154.593 76.8317 154.46C76.7006 154.328 76.525 154.248 76.3388 154.237C76.1527 154.24 75.9747 154.314 75.8411 154.443C75.7074 154.573 75.6283 154.749 75.6196 154.935C75.6289 155.132 75.7111 155.319 75.8503 155.459C75.9895 155.599 76.1757 155.682 76.3729 155.692C76.567 155.67 76.745 155.573 76.8695 155.422C76.994 155.272 77.0554 155.079 77.041 154.884" fill="white"/>
<path d="M73.5046 151.862L74.926 152.288L70.0619 169.352C70.0619 169.352 69.5087 170.063 68.9683 169.833L73.5046 151.862Z" fill="#263238"/>
<path d="M76.5131 162.054C76.428 162.029 76.5131 161.578 76.3259 161.076C76.1386 160.574 75.8407 160.25 75.9003 160.178C75.9599 160.105 76.4323 160.365 76.628 160.978C76.8238 161.591 76.5897 162.093 76.5131 162.054Z" fill="#263238"/>
<path d="M75.2578 163.74C75.1684 163.74 75.1131 163.314 74.8323 162.931C74.5514 162.548 74.1641 162.352 74.1897 162.267C74.2152 162.182 74.7259 162.267 75.0833 162.744C75.4408 163.22 75.3429 163.761 75.2578 163.74Z" fill="#263238"/>
<path d="M72.7303 164.237C72.7303 164.156 73.2027 164.144 73.624 164.493C74.0453 164.842 74.1346 165.297 74.0495 165.314C73.9644 165.331 73.7729 165.016 73.4197 164.735C73.0665 164.454 72.7176 164.327 72.7303 164.237Z" fill="#263238"/>
<path d="M95.7403 200.575L95.5361 201.047C95.5361 201.047 102.128 207.712 101.558 209.265L85.7441 202.337L88.2719 197.171C89.2003 198.24 90.3476 199.097 91.6361 199.685C92.9246 200.272 94.3243 200.576 95.7403 200.575Z" fill="#455A64"/>
<path d="M89.1348 199.533C88.9623 199.511 88.7881 199.555 88.6458 199.655C88.5035 199.755 88.4033 199.904 88.3646 200.073C88.3378 200.244 88.3775 200.42 88.4756 200.563C88.5737 200.706 88.7227 200.806 88.8923 200.843C89.0752 200.864 89.2592 200.816 89.4091 200.709C89.559 200.602 89.6644 200.444 89.7051 200.265C89.7146 200.083 89.6534 199.905 89.5344 199.768C89.4154 199.63 89.2477 199.545 89.0668 199.528" fill="white"/>
<path d="M85.7441 202.337L86.3527 201.094L101.285 208.21C101.285 208.21 101.855 208.822 101.558 209.286L85.7441 202.337Z" fill="#263238"/>
<path d="M95.5954 201.116C95.5571 201.192 95.1698 201.06 94.6677 201.141C94.1655 201.222 93.8166 201.456 93.774 201.396C93.7315 201.337 94.0294 200.937 94.6251 200.847C95.2209 200.758 95.6209 201.06 95.5954 201.116Z" fill="#263238"/>
<path d="M96.9276 202.533C96.9276 202.613 96.5233 202.596 96.1148 202.809C95.7063 203.022 95.485 203.333 95.4084 203.294C95.3318 203.256 95.4765 202.801 95.9829 202.55C96.4893 202.299 96.9616 202.456 96.9276 202.533Z" fill="#263238"/>
<path d="M97 204.928C96.9234 204.928 97 204.503 97.366 204.145C97.732 203.788 98.1873 203.801 98.1916 203.881C98.1958 203.962 97.8724 204.086 97.5618 204.367C97.2511 204.647 97.0809 204.958 97 204.928Z" fill="#263238"/>
<path d="M87.9351 73.9823C87.9061 73.8245 87.8195 73.6831 87.6921 73.5856C87.5647 73.4881 87.4056 73.4414 87.2457 73.4546H87.2032C87.085 73.4782 86.9763 73.5359 86.8905 73.6206C86.8048 73.7053 86.7457 73.8132 86.7206 73.9311C86.6955 74.049 86.7054 74.1717 86.7492 74.284C86.793 74.3962 86.8688 74.4932 86.9671 74.563C87.0654 74.6327 87.182 74.6721 87.3024 74.6763C87.4229 74.6806 87.5419 74.6494 87.6449 74.5868C87.7479 74.5241 87.8302 74.4326 87.8818 74.3237C87.9334 74.2148 87.9519 74.0931 87.9351 73.9738V73.9823Z" fill="#455A64"/>
<path d="M88.5352 83.0421L92.28 93.383L101.263 107.979L101.531 92.4936L98.9484 80.5271H98.7399L96.8845 88.4381L94.4205 85.4592L88.816 81.5569L88.5352 83.0421Z" fill="#FAFAFA"/>
<path d="M100.383 87.1789C100.169 86.9679 99.9782 86.7355 99.8125 86.4852C99.6423 86.2682 99.438 86.0086 99.1997 85.7278C98.9532 85.4191 98.6671 85.1444 98.3486 84.9107L98.5145 84.8384C98.4795 84.9828 98.4354 85.1249 98.3826 85.2639C98.0167 86.1789 97.5954 86.9448 97.323 87.5193C97.0507 88.0938 96.9187 88.4555 96.8975 88.4513C96.9283 88.1032 97.0281 87.7647 97.1911 87.4555C97.4251 86.864 97.8294 86.0767 98.1826 85.1873C98.2321 85.0625 98.2733 84.9346 98.306 84.8043L98.3443 84.6511L98.472 84.7362C98.811 84.9818 99.1109 85.2774 99.3614 85.6129C99.5955 85.9065 99.787 86.1831 99.9444 86.4129C100.123 86.648 100.271 86.9055 100.383 87.1789Z" fill="#263238"/>
<path d="M101.263 107.98C101.185 107.74 101.13 107.493 101.097 107.243C100.995 106.733 100.859 106.052 100.697 105.231C100.352 103.528 99.8459 101.192 99.2714 98.6089C98.6969 96.0258 98.1692 93.7236 97.7819 91.9959C97.599 91.1788 97.45 90.5022 97.3564 89.9915C97.2904 89.7475 97.2449 89.4984 97.2202 89.2468C97.3101 89.4823 97.3827 89.7241 97.4372 89.9703C97.5649 90.4384 97.7394 91.1193 97.9522 91.9618C98.3777 93.664 98.9267 95.9748 99.5012 98.5579C100.076 101.141 100.561 103.494 100.867 105.201C101.016 106.052 101.135 106.75 101.199 107.231C101.236 107.479 101.258 107.729 101.263 107.98Z" fill="#263238"/>
<path d="M99.5189 79.6972C97.0294 81.5143 91.5866 81.8463 89.2844 81.6973C86.1821 81.4803 82.8288 80.2036 79.8499 79.4036C76.7477 78.5908 73.8922 78.6419 70.7985 79.0844C67.7047 79.527 64.0152 81.6378 62.1938 84.14L63.4705 85.506C63.4705 85.506 67.726 81.9697 71.607 81.4505C75.3263 80.9611 77.6243 81.7527 81.9905 82.9059C86.9609 84.2208 92.9697 83.9315 94.8634 83.4208C96.6854 82.9091 98.4271 82.1457 100.038 81.1526L99.5189 79.6972Z" fill="#455A64"/>
<path d="M89.4287 85.5061C89.5623 85.5772 89.6866 85.6644 89.7989 85.7657C90.0245 85.9402 90.3479 86.1912 90.7479 86.5274C91.5437 87.1785 92.6331 88.0934 93.8247 89.1105L93.8885 89.1658L93.7098 89.2254C93.914 88.2764 94.1098 87.387 94.28 86.6083L94.314 86.4508L94.4332 86.5487C95.1141 87.1019 95.6758 87.5658 96.0673 87.8934C96.2812 88.0559 96.4793 88.2383 96.6588 88.4381C96.4237 88.3076 96.2014 88.1551 95.995 87.9828C95.5694 87.6807 95.0034 87.2381 94.314 86.7062L94.4672 86.6508L93.9268 89.2765L93.8885 89.4595L93.7438 89.3361L93.68 89.2807C92.4884 88.2637 91.416 87.3317 90.6458 86.6508C90.2585 86.3104 89.9521 86.0295 89.7394 85.8338C89.6222 85.7384 89.5177 85.6282 89.4287 85.5061Z" fill="#263238"/>
<path d="M58.8869 95.7066C58.9124 95.5407 58.0358 92.1916 58.0358 92.1916L53.7803 90.2468L54.5292 94.1278C55.0134 94.6076 55.5219 95.0621 56.0527 95.4896C56.1251 95.4641 58.8869 95.7066 58.8869 95.7066Z" fill="#EB996E"/>
<path d="M65.2834 88.57C65.3787 89.6888 65.1401 90.8108 64.5977 91.7939C64.0553 92.7771 63.2336 93.5774 62.2364 94.0935C61.2392 94.6096 60.1113 94.8184 58.9955 94.6935C57.8796 94.5685 56.8258 94.1155 55.9674 93.3916C55.109 92.6678 54.4846 91.7056 54.1731 90.6269C53.8615 89.5481 53.8769 88.4012 54.2173 87.3312C54.5576 86.2611 55.2076 85.3161 56.0851 84.6155C56.9626 83.9149 58.0281 83.4903 59.147 83.3954C60.6469 83.2681 62.1359 83.7417 63.2867 84.7121C64.4374 85.6825 65.1556 87.0702 65.2834 88.57Z" fill="#FF725E"/>
<g opacity="0.3">
<path d="M65.2824 88.57C65.3777 89.6888 65.1391 90.8108 64.5967 91.7939C64.0544 92.7771 63.2326 93.5774 62.2354 94.0935C61.2382 94.6096 60.1104 94.8184 58.9945 94.6935C57.8786 94.5685 56.8248 94.1155 55.9664 93.3916C55.1081 92.6678 54.4836 91.7056 54.1721 90.6269C53.8606 89.5481 53.8759 88.4012 54.2163 87.3312C54.5566 86.2611 55.2067 85.3161 56.0841 84.6155C56.9616 83.9149 58.0272 83.4903 59.146 83.3954C60.6459 83.2681 62.1349 83.7417 63.2857 84.7121C64.4364 85.6825 65.1547 87.0702 65.2824 88.57Z" fill="black"/>
</g>
<path d="M65.2834 87.834C65.3787 88.9528 65.1401 90.0747 64.5977 91.0579C64.0553 92.041 63.2336 92.8413 62.2364 93.3574C61.2392 93.8735 60.1113 94.0823 58.9955 93.9574C57.8796 93.8325 56.8258 93.3794 55.9674 92.6556C55.109 91.9317 54.4846 90.9696 54.1731 89.8908C53.8615 88.812 53.8769 87.6651 54.2173 86.5951C54.5576 85.525 55.2076 84.58 56.0851 83.8794C56.9626 83.1788 58.0281 82.7542 59.147 82.6593C60.6469 82.532 62.1359 83.0056 63.2867 83.976C64.4374 84.9464 65.1556 86.3341 65.2834 87.834Z" fill="#FF725E"/>
<g opacity="0.3">
<path d="M55.6611 88.8893C55.5632 87.7326 55.9288 86.5843 56.6773 85.6969C57.4258 84.8096 58.496 84.2558 59.6527 84.1572H59.8357C59.2423 84.1234 58.6483 84.2109 58.0898 84.4143C57.5314 84.6178 57.0202 84.9329 56.5876 85.3404C56.1549 85.7479 55.8098 86.2393 55.5734 86.7846C55.337 87.3299 55.2142 87.9177 55.2124 88.512C55.2107 89.1064 55.3301 89.6948 55.5633 90.2415C55.7965 90.7882 56.1387 91.2816 56.569 91.6917C56.9993 92.1017 57.5086 92.4198 58.0658 92.6265C58.6231 92.8331 59.2166 92.9241 59.8102 92.8938C58.7507 92.8428 57.7457 92.4086 56.9825 91.6719C56.2192 90.9353 55.7496 89.9464 55.6611 88.8893Z" fill="black"/>
</g>
<g opacity="0.3">
<path d="M61.9941 84.834L62.9261 83.6978L63.6368 84.302L62.6367 85.3404L61.9941 84.834Z" fill="white"/>
</g>
<path d="M63.9848 88.1447C63.9173 87.7937 63.8292 87.4469 63.721 87.1063C63.3855 86.1894 62.7554 85.4097 61.9294 84.8892C61.322 84.5095 60.6293 84.2877 59.9144 84.2438C59.1994 84.2 58.4848 84.3355 57.8356 84.6381C57.462 84.8096 57.1163 85.0362 56.81 85.3105C56.4851 85.5918 56.2078 85.9238 55.9887 86.2935C55.5146 87.0672 55.3001 87.9721 55.3767 88.8762C55.4532 89.7804 55.8168 90.6364 56.4143 91.3193C56.6935 91.6453 57.0224 91.9253 57.3888 92.1491C57.7372 92.3694 58.1176 92.5345 58.5165 92.6385C59.096 92.794 59.7015 92.8273 60.2946 92.7363C60.8877 92.6452 61.4554 92.4319 61.9616 92.1097C62.4678 91.7876 62.9015 91.3637 63.2352 90.865C63.5688 90.3663 63.7951 89.8036 63.8997 89.2128C63.9507 88.8589 63.9791 88.5021 63.9848 88.1447C64.0428 88.5041 64.0428 88.8704 63.9848 89.2298C63.8908 89.846 63.6677 90.4355 63.3301 90.9595C62.9925 91.4835 62.5479 91.9302 62.0257 92.2705C61.5034 92.6108 60.9151 92.8369 60.2994 92.9341C59.6836 93.0312 59.0543 92.9972 58.4526 92.8342C57.5967 92.6069 56.8279 92.1299 56.244 91.464C55.6097 90.7453 55.2241 89.8413 55.1443 88.8861C55.0646 87.9309 55.2951 86.9754 55.8015 86.1616C56.0302 85.7776 56.3173 85.4316 56.6526 85.136C56.9748 84.8491 57.3394 84.6137 57.7335 84.4381C58.4599 84.1054 59.2622 83.9731 60.057 84.0551C60.9014 84.1446 61.7021 84.4756 62.3632 85.0084C63.0244 85.5413 63.5179 86.2534 63.7848 87.0595C63.9121 87.4074 63.9797 87.7743 63.9848 88.1447Z" fill="#263238"/>
<path d="M57.542 83.5146C57.542 83.5529 57.2271 83.6381 56.793 83.9402C56.2428 84.3557 55.7617 84.8555 55.3674 85.4211C54.9573 85.9734 54.6674 86.6054 54.5163 87.2765C54.3972 87.7914 54.3929 88.1276 54.3589 88.1276C54.2931 87.8377 54.2931 87.5367 54.3589 87.2467C54.4774 86.5342 54.7698 85.8619 55.21 85.2892C55.6174 84.7018 56.1347 84.1989 56.7335 83.8083C56.9711 83.6384 57.2507 83.5369 57.542 83.5146Z" fill="white"/>
<path d="M58.6229 83.1318C58.6229 83.1913 58.5378 83.2679 58.3931 83.3105C58.2484 83.353 58.1165 83.3105 58.0994 83.2722C58.0824 83.2339 58.1888 83.1317 58.3335 83.0934C58.4782 83.0551 58.6101 83.0722 58.6229 83.1318Z" fill="white"/>
<path d="M61.4749 91.7533C61.0422 92.0435 60.5485 92.2305 60.0321 92.2998C59.5156 92.3692 58.9901 92.3191 58.4961 92.1533C58.4961 92.0895 59.1897 92.1959 60.0111 92.081C60.8324 91.9661 61.4494 91.6937 61.4749 91.7533Z" fill="white"/>
<path d="M63.9979 90.3192C63.9469 90.2852 64.0405 90.0384 64.1213 89.7277C64.2022 89.4171 64.2362 89.1532 64.3001 89.149C64.3639 89.1447 64.4277 89.4341 64.3341 89.783C64.2405 90.132 64.049 90.3533 63.9979 90.3192Z" fill="white"/>
<g opacity="0.3">
<path d="M60.2103 86.8638V90.7873H59.2996V87.5915H58.5166V86.8638H60.2103Z" fill="black"/>
</g>
<path d="M59.1506 95.2087C58.3378 94.8725 55.4398 94.5193 55.4398 94.5193L55.6696 93.1831C55.6696 93.1831 57.2952 92.6979 57.7335 91.9915C57.8577 91.7679 57.9257 91.5174 57.9316 91.2617C57.9375 91.0059 57.8812 90.7525 57.7675 90.5234L56.8696 90.7787C57.3207 90.3191 57.0611 89.4212 57.0611 89.4212L56.0611 89.634C56.149 89.5684 56.2221 89.485 56.2756 89.3892C56.3291 89.2934 56.3617 89.1874 56.3713 89.0781C56.381 88.9688 56.3674 88.8587 56.3316 88.7551C56.2957 88.6514 56.2383 88.5564 56.1632 88.4765L55.3887 88.7276C55.8568 88.2169 55.0227 87.6594 55.0227 87.6594C55.0227 87.6594 51.4992 90.4085 51.2694 90.7872C51.0396 91.166 51.546 92.1745 51.546 92.1745C51.2648 92.5005 51.0845 92.9012 51.0268 93.3278C51.0055 93.915 51.7502 94.132 51.7502 94.132C51.7054 94.4435 51.7257 94.7608 51.8098 95.064C51.9545 95.5491 54.295 96.9024 54.295 96.9024L57.3718 100.005L60.4655 95.7747C60.4655 95.7747 59.9634 95.5449 59.1506 95.2087Z" fill="#FFBE9D"/>
<path d="M57.7209 90.5659C57.4874 90.7168 57.2275 90.8222 56.9549 90.8766C56.3214 91.0347 55.6988 91.2337 55.091 91.4723C54.768 91.6115 54.4693 91.8011 54.2058 92.0341C53.9633 92.2554 53.7803 92.4596 53.5888 92.6639C53.2398 93.0384 52.9632 93.2086 52.9462 93.1831C52.9292 93.1575 53.159 92.9575 53.4739 92.5617C53.6571 92.3243 53.8546 92.0984 54.0654 91.8851C54.3375 91.6264 54.653 91.4176 54.9974 91.2681C55.618 91.025 56.2608 90.8426 56.9166 90.7234C57.1797 90.6481 57.4488 90.5954 57.7209 90.5659Z" fill="#EB996E"/>
<path d="M57.1256 94.8216C57.1256 94.8769 56.3936 94.7152 55.4234 94.7577H55.2744L55.317 94.6131C55.3723 94.4173 55.4276 94.1875 55.4702 93.9832C55.5306 93.6899 55.5704 93.3927 55.5893 93.0938V93.0045H55.6829C56.0222 92.9668 56.3529 92.8733 56.6617 92.7279C56.9 92.63 57.0362 92.5577 57.049 92.5789C57.0617 92.6002 56.9468 92.7023 56.7213 92.8385C56.4062 93.0335 56.0541 93.161 55.6872 93.213L55.7851 93.1151C55.7748 93.4253 55.7392 93.7342 55.6787 94.0386C55.6364 94.2573 55.581 94.4733 55.5127 94.6854L55.4063 94.545C55.9931 94.5018 56.5819 94.5965 57.1256 94.8216Z" fill="#EB996E"/>
<path d="M52.5342 91.826C52.6759 91.6172 52.8464 91.4296 53.0406 91.2685L53.6364 90.6812C53.7521 90.5559 53.882 90.4445 54.0236 90.3493C54.178 90.2522 54.3403 90.1682 54.5087 90.0982C55.0901 89.8724 55.6894 89.6958 56.3003 89.5705C56.548 89.4969 56.8039 89.454 57.062 89.4429C56.839 89.5746 56.5961 89.6694 56.3429 89.7237C55.8918 89.8684 55.2535 90.0344 54.5981 90.3025C54.4401 90.3662 54.2878 90.443 54.1428 90.5323C54.0104 90.6182 53.8877 90.718 53.7768 90.8302L53.1512 91.3791C52.9676 91.5564 52.7599 91.7068 52.5342 91.826Z" fill="#EB996E"/>
<path d="M51.9464 90.9235C51.9251 90.8979 52.1209 90.6979 52.4528 90.3958L53.0401 89.8766L53.3933 89.5702L53.5805 89.4128L53.6784 89.3319C53.7172 89.3028 53.7585 89.2771 53.8018 89.2553C54.3376 89.0138 54.8893 88.8091 55.4529 88.6425C55.6794 88.5496 55.9194 88.4935 56.1636 88.4766C55.9595 88.6081 55.7393 88.7125 55.5083 88.7872C55.0827 88.9617 54.504 89.1702 53.9082 89.4511L53.8146 89.5064L53.7167 89.583L53.5294 89.7404L53.1677 90.0341L52.5507 90.5192C52.3698 90.6824 52.1663 90.8185 51.9464 90.9235Z" fill="#EB996E"/>
<path d="M65.0025 66.4035L65.1599 66.012L65.4025 66.3567C65.5973 66.634 65.8676 66.8497 66.1813 66.978L66.5728 67.1397L66.2281 67.3822C65.9496 67.5741 65.7336 67.8433 65.6068 68.1567L65.4451 68.5482L65.2025 68.2036C65.0077 67.9262 64.7374 67.7105 64.4237 67.5822L64.0322 67.4205L64.3812 67.178C64.6573 66.9837 64.8727 66.7151 65.0025 66.4035Z" fill="#FF725E"/>
<path d="M118.052 111.38L118.209 110.988L118.452 111.333C118.647 111.61 118.917 111.826 119.231 111.954L119.622 112.116L119.273 112.359C118.997 112.555 118.782 112.824 118.652 113.137L118.494 113.525L118.252 113.18C118.057 112.902 117.787 112.687 117.473 112.559L117.082 112.397L117.43 112.154C117.707 111.96 117.922 111.691 118.052 111.38Z" fill="#FF725E"/>
<path d="M127.206 93.2259L127.364 92.8386L127.606 93.1833C127.802 93.4597 128.072 93.6751 128.385 93.8046L128.776 93.9663L128.432 94.2089C128.154 94.402 127.939 94.6709 127.81 94.9834L127.649 95.3749L127.406 95.0302C127.211 94.7528 126.941 94.5372 126.627 94.4089L126.236 94.2472L126.585 94.0046C126.862 93.8099 127.078 93.5396 127.206 93.2259Z" fill="#FF725E"/>
<path d="M49.7468 64.2629L49.8404 64.0374L49.9808 64.2374C50.093 64.399 50.2497 64.5247 50.4319 64.5991L50.6575 64.6927L50.4575 64.8331C50.2958 64.9453 50.1701 65.102 50.0957 65.2842L50.0021 65.5098L49.8617 65.3098C49.7495 65.1481 49.5928 65.0224 49.4106 64.948L49.1851 64.8544L49.3851 64.714C49.5467 64.6018 49.6724 64.4451 49.7468 64.2629Z" fill="#FF725E"/>
<path d="M118.601 98.1027L118.695 97.8772L118.835 98.0772C118.947 98.239 119.104 98.3647 119.286 98.4389L119.516 98.5325L119.312 98.673C119.153 98.7865 119.029 98.9429 118.954 99.1241L118.861 99.3496L118.72 99.1496C118.606 98.9898 118.45 98.8647 118.269 98.7879L118.04 98.6985L118.24 98.5538C118.402 98.4427 118.528 98.2857 118.601 98.1027Z" fill="#FF725E"/>
<path d="M56.9174 52.2839L57.2961 51.6924L57.6196 52.3265C57.879 52.832 58.2777 53.2529 58.7686 53.5393L59.3813 53.8967L58.7515 54.2202C58.2455 54.4805 57.8235 54.8789 57.5345 55.3691L57.177 55.9819L56.8536 55.3521C56.5948 54.845 56.196 54.4226 55.7046 54.135L55.0918 53.7776L55.7259 53.4542C56.2275 53.187 56.6413 52.7807 56.9174 52.2839Z" fill="#FF725E"/>
</svg>
