<svg width="17" height="17" viewBox="0 0 17 17" fill="none" xmlns="http://www.w3.org/2000/svg">
<path d="M8.8636 0.951904C7.40722 0.951904 5.98354 1.38377 4.7726 2.19289C3.56167 3.00202 2.61786 4.15205 2.06052 5.49757C1.50319 6.84309 1.35737 8.32367 1.64149 9.75206C1.92562 11.1805 2.62693 12.4925 3.65675 13.5223C4.68657 14.5522 5.99863 15.2535 7.42703 15.5376C8.85543 15.8217 10.336 15.6759 11.6815 15.1186C13.027 14.5612 14.1771 13.6174 14.9862 12.4065C15.7953 11.1956 16.2272 9.77188 16.2272 8.3155C16.2271 6.36259 15.4512 4.4897 14.0703 3.10879C12.6894 1.72787 10.8165 0.952029 8.8636 0.951904Z" stroke="black" stroke-width="1.5" stroke-miterlimit="10"/>
</svg>
