<svg width="20" height="17" viewBox="0 0 20 17" fill="none" xmlns="http://www.w3.org/2000/svg">
<path fill-rule="evenodd" clip-rule="evenodd" d="M16.7852 8.59691C17.4922 7.87871 17.885 6.90904 17.8772 5.90122C17.8693 4.8934 17.4614 3.92998 16.7432 3.22291C16.3876 2.87281 15.9665 2.59618 15.5039 2.40881C15.0414 2.22145 14.5465 2.12702 14.0475 2.13092C13.0397 2.1388 12.0762 2.54671 11.3692 3.26491C11.1772 3.45691 10.9332 3.69258 10.6372 3.97191L9.81418 4.74691L8.99118 3.97191C8.69451 3.69191 8.45018 3.45625 8.25818 3.26491C7.54554 2.55228 6.579 2.15193 5.57118 2.15193C4.56336 2.15193 3.59682 2.55228 2.88418 3.26491C1.41618 4.73391 1.39918 7.10891 2.83018 8.58491L9.81418 15.5689L16.7852 8.59691ZM2.03518 2.41691C2.49949 1.95248 3.05074 1.58407 3.65746 1.33271C4.26417 1.08135 4.91446 0.951982 5.57118 0.951982C6.2279 0.951982 6.87819 1.08135 7.4849 1.33271C8.09161 1.58407 8.64287 1.95248 9.10718 2.41691C9.28918 2.59958 9.52484 2.82691 9.81418 3.09891C10.1022 2.82691 10.3378 2.59925 10.5212 2.41591C11.4517 1.47108 12.7194 0.934589 14.0455 0.924462C15.3716 0.914335 16.6473 1.4314 17.5922 2.36191C18.537 3.29243 19.0735 4.56016 19.0836 5.88623C19.0938 7.2123 18.5767 8.48808 17.6462 9.43291L10.5212 16.5589C10.3336 16.7464 10.0793 16.8517 9.81418 16.8517C9.54901 16.8517 9.29471 16.7464 9.10718 16.5589L1.98018 9.43191C1.06622 8.48932 0.559687 7.22505 0.569978 5.91215C0.580269 4.59924 1.10655 3.34307 2.03518 2.41491V2.41691Z" fill="black"/>
</svg>
