<svg width="21" height="21" viewBox="0 0 21 21" fill="none" xmlns="http://www.w3.org/2000/svg">
<path d="M16.5 16.9519C17.0304 16.9519 17.5391 17.1626 17.9142 17.5377C18.2893 17.9128 18.5 18.4215 18.5 18.9519C18.5 19.4823 18.2893 19.991 17.9142 20.3661C17.5391 20.7412 17.0304 20.9519 16.5 20.9519C15.9696 20.9519 15.4609 20.7412 15.0858 20.3661C14.7107 19.991 14.5 19.4823 14.5 18.9519C14.5 17.8419 15.39 16.9519 16.5 16.9519ZM0.5 0.951904H3.77L4.71 2.9519H19.5C19.7652 2.9519 20.0196 3.05726 20.2071 3.2448C20.3946 3.43233 20.5 3.68669 20.5 3.9519C20.5 4.1219 20.45 4.2919 20.38 4.4519L16.8 10.9219C16.46 11.5319 15.8 11.9519 15.05 11.9519H7.6L6.7 13.5819L6.67 13.7019C6.67 13.7682 6.69634 13.8318 6.74322 13.8787C6.79011 13.9256 6.8537 13.9519 6.92 13.9519H18.5V15.9519H6.5C5.96957 15.9519 5.46086 15.7412 5.08579 15.3661C4.71071 14.991 4.5 14.4823 4.5 13.9519C4.5 13.6019 4.59 13.2719 4.74 12.9919L6.1 10.5419L2.5 2.9519H0.5V0.951904ZM6.5 16.9519C7.03043 16.9519 7.53914 17.1626 7.91421 17.5377C8.28929 17.9128 8.5 18.4215 8.5 18.9519C8.5 19.4823 8.28929 19.991 7.91421 20.3661C7.53914 20.7412 7.03043 20.9519 6.5 20.9519C5.96957 20.9519 5.46086 20.7412 5.08579 20.3661C4.71071 19.991 4.5 19.4823 4.5 18.9519C4.5 17.8419 5.39 16.9519 6.5 16.9519ZM15.5 9.9519L18.28 4.9519H5.64L8 9.9519H15.5Z" fill="black"/>
</svg>
